<svg width="24" height="24" viewBox="0 0 24 24" fill="none" xmlns="http://www.w3.org/2000/svg">
<path d="M23.0552 1.05623L19.1449 1.75303L9.21431 11.6836C9.36722 11.9093 9.46603 12.1861 9.46603 12.4773C9.46603 12.7521 9.38588 13.0093 9.24839 13.2271C9.01097 13.1518 8.75864 13.111 8.49713 13.111C7.76006 13.111 7.09538 13.434 6.63666 13.9452L6.20953 13.518L7.01752 12.71C6.80588 12.4395 6.6 12.1642 6.39923 11.885L5.48784 12.7963L4.86839 12.1768L5.89158 11.1537C5.68519 10.8448 5.48517 10.5313 5.29195 10.213L3.37936 12.1256L6.11283 14.8591C6.03722 15.097 5.99611 15.3499 5.99611 15.612C5.99611 15.9714 6.07345 16.3133 6.21136 16.6229L2.8298 20.0044L2.1473 19.3219L0.984985 20.4844L1.66739 21.1669L1.26394 21.5704L2.54109 22.8475L2.9445 22.4439L3.627 23.1264L4.78941 21.9639L4.10705 21.2816L7.48945 17.8991C7.79817 18.0361 8.13905 18.113 8.49717 18.113C8.75934 18.113 9.01223 18.0719 9.25013 17.9963L11.9859 20.732L13.8984 18.8194C13.5798 18.6259 13.2663 18.4259 12.9578 18.2197L11.9345 19.243L11.3152 18.6234L12.2265 17.7122C11.947 17.5111 11.6717 17.3052 11.4014 17.0937L10.5933 17.9018L10.164 17.4724C10.6751 17.0137 10.9981 16.349 10.9981 15.6119C10.9981 15.3613 10.9603 15.1193 10.891 14.8905C11.1114 14.748 11.3732 14.6647 11.6534 14.6648C11.9445 14.6648 12.2054 14.7477 12.4278 14.897L22.3584 4.96641L23.0552 1.05623ZM19.9508 3.54117L20.5702 4.16063L11.5851 13.1456L10.9657 12.5263L19.9508 3.54117ZM8.49717 13.987C9.39984 13.987 10.1221 14.7094 10.1221 15.612C10.1221 16.5146 9.39984 17.2369 8.49717 17.2369C7.59455 17.2369 6.8722 16.5146 6.8722 15.612C6.8722 14.7094 7.59455 13.987 8.49717 13.987Z" fill="white"/>
</svg>
