<svg width="119" height="119" viewBox="0 0 119 119" fill="none" xmlns="http://www.w3.org/2000/svg">
<path d="M17.5417 89.3889C17.5417 82.4358 17.5417 78.9592 19.7018 76.7988C21.8619 74.6389 25.3385 74.6389 32.2917 74.6389H34.75C39.3855 74.6389 41.7032 74.6389 43.1433 76.079C44.5834 77.5191 44.5834 79.8368 44.5834 84.4722V109.056H17.5417V89.3889Z" stroke="white" stroke-width="8.5" stroke-linecap="round" stroke-linejoin="round"/>
<path d="M74.0834 94.3056C74.0834 89.6701 74.0834 87.3524 75.5235 85.9123C76.9636 84.4722 79.2813 84.4722 83.9167 84.4722H86.375C93.3282 84.4722 96.8048 84.4722 98.9651 86.6321C101.125 88.7925 101.125 92.2691 101.125 99.2222V109.056H74.0834V94.3056Z" stroke="white" stroke-width="8.5" stroke-linecap="round" stroke-linejoin="round"/>
<path d="M10.1667 109.056H108.5" stroke="white" stroke-width="8.5" stroke-linecap="round" stroke-linejoin="round"/>
<path d="M44.5834 79.5556C44.5834 72.6025 44.5834 69.1259 46.7435 66.9655C48.9035 64.8056 52.3802 64.8056 59.3334 64.8056C66.2865 64.8056 69.7631 64.8056 71.9235 66.9655C74.0834 69.1259 74.0834 72.6025 74.0834 79.5556V109.056H44.5834V79.5556Z" stroke="white" stroke-width="8.5" stroke-linecap="round" stroke-linejoin="round"/>
<path d="M62.7313 13.5625L66.1921 20.5416C66.6641 21.5131 67.9223 22.4449 68.9843 22.6234L75.2575 23.6742C79.269 24.3483 80.213 27.2828 77.322 30.1775L72.4451 35.0946C71.6196 35.9273 71.1673 37.5333 71.423 38.6833L72.8188 44.7702C73.9201 49.5881 71.3836 51.4519 67.1558 48.9338L61.2759 45.4245C60.2139 44.79 58.4641 44.79 57.3824 45.4245L51.5026 48.9338C47.2944 51.4519 44.738 49.5683 45.8392 44.7702L47.2354 38.6833C47.4911 37.5333 47.0388 35.9273 46.2129 35.0946L41.3361 30.1775C38.4651 27.2828 39.3893 24.3483 43.4009 23.6742L49.6736 22.6234C50.7159 22.4449 51.9746 21.5131 52.4466 20.5416L55.9074 13.5625C57.7954 9.77549 60.8629 9.77549 62.7313 13.5625Z" stroke="white" stroke-width="8.5" stroke-linecap="round" stroke-linejoin="round"/>
</svg>
