<svg width="24" height="24" viewBox="0 0 24 24" fill="none" xmlns="http://www.w3.org/2000/svg">
<path d="M17.0523 1.10376C16.5937 1.10643 16.275 1.24659 16.0799 1.58282C15.2591 2.99751 14.2784 4.47243 13.804 6.14118C13.937 6.18009 14.0682 6.22495 14.1965 6.27492C14.5412 6.40912 14.8706 6.57876 15.1594 6.78388C16.4501 5.5866 17.8859 4.66467 19.2586 3.71535C19.791 3.3472 19.8339 3.0786 19.736 2.73895C19.638 2.39929 19.2734 1.97184 18.7739 1.65257C18.2743 1.33335 17.655 1.12148 17.1459 1.10507C17.114 1.10404 17.0828 1.10362 17.0523 1.10376ZM13.818 1.13873C13.3483 1.1302 12.984 1.4384 12.6966 2.08748C12.2775 3.03407 12.2179 4.59229 12.6288 5.98678C12.6361 5.9864 12.6433 5.9857 12.6507 5.98537C12.744 5.98129 12.8377 5.98199 12.9319 5.98678C13.3742 4.35449 14.2428 2.95303 14.995 1.6964C14.5117 1.29815 14.1103 1.14412 13.8181 1.13878L13.818 1.13873ZM9.25776 3.86728L8.76558 4.59243C9.46026 5.06306 10.1276 5.51704 10.6318 6.06309C10.8154 6.26184 10.9773 6.47193 11.1151 6.70092C11.2918 6.4792 11.514 6.3082 11.7568 6.19504C11.7759 6.18623 11.7952 6.1784 11.8144 6.1702C11.6539 5.9152 11.472 5.68185 11.2748 5.46838C10.6764 4.82024 9.95105 4.33696 9.25776 3.86728ZM19.747 4.44243C18.3757 5.39062 17.0013 6.27768 15.7932 7.38524C15.8137 7.41224 15.8329 7.43999 15.8521 7.46774C16.8215 7.15134 18.1718 6.74901 19.317 6.5579C19.8553 6.46809 20.051 6.25078 20.1407 5.93784C20.2305 5.6249 20.1617 5.15456 19.8915 4.67301C19.8482 4.59581 19.7997 4.51879 19.747 4.44238L19.747 4.44243ZM9.24989 6.68634C8.54911 6.69571 7.8562 6.8879 7.1894 7.28474L7.63767 8.03615C8.65284 7.43193 9.63576 7.37367 10.6954 7.82226C10.7198 7.56013 10.7782 7.32257 10.8702 7.10929C10.8866 7.07151 10.9044 7.03495 10.9228 6.99895C10.3664 6.78707 9.80578 6.67893 9.24994 6.68629L9.24989 6.68634ZM12.803 6.87074C12.5415 6.86685 12.3063 6.90553 12.1267 6.98915C11.9216 7.08468 11.7768 7.21949 11.6745 7.45649C11.6331 7.55245 11.6008 7.66931 11.5815 7.80778C11.6028 7.80745 11.6241 7.80637 11.6454 7.80623C12.3979 7.80229 13.173 7.93607 13.957 8.23701C14.3186 8.37576 14.663 8.58637 14.9904 8.85501C15.1412 8.7404 15.2243 8.63376 15.261 8.54868C15.3178 8.41753 15.3124 8.30568 15.2313 8.13524C15.0691 7.79423 14.5185 7.34048 13.8787 7.09134C13.5588 6.96674 13.2234 6.89334 12.9167 6.87506C12.8783 6.87271 12.8404 6.87131 12.8031 6.87074H12.803ZM11.6425 8.67342C10.5652 8.67693 9.54619 9.01964 8.59565 9.6007C7.0748 10.5305 5.75667 12.0909 4.82953 13.8209C3.90248 15.551 3.37017 17.4495 3.36769 19.002C3.3652 20.5517 3.84862 21.6866 4.90575 22.1793C4.90776 22.1803 4.90959 22.1813 4.91161 22.1823H4.91311C6.07898 22.7218 7.98886 23.0887 9.99469 23.1241C12.0005 23.1595 14.1098 22.8683 15.7075 22.1778C16.7369 21.733 17.3268 20.8441 17.606 19.6393C17.8851 18.4343 17.8177 16.9366 17.4946 15.4527C17.1715 13.9687 16.5946 12.4967 15.8964 11.3335C15.1983 10.1704 14.3677 9.33365 13.6435 9.05573C12.9561 8.79196 12.2889 8.67135 11.6425 8.67342Z" fill="white"/>
</svg>
