<svg width="234" height="78" viewBox="0 0 234 78" fill="none" xmlns="http://www.w3.org/2000/svg">
<g clip-path="url(#clip0_43_882)">
<path fill-rule="evenodd" clip-rule="evenodd" d="M13.8193 75.4616C20.1355 80.8831 36.3012 76.8405 39.9709 70.6356C40.6666 69.4604 41.1168 68.0972 40.8849 66.3266C41.0077 65.7782 33.1636 40.6922 32.5224 34.4403C32.0449 41.7421 13.833 43.2149 9.30385 41.7577C7.80324 49.2318 8.15793 71.0273 13.8193 75.4616Z" fill="url(#paint0_linear_43_882)"/>
<path fill-rule="evenodd" clip-rule="evenodd" d="M26.8201 57.2543C25.5651 50.7674 30.5853 47.0852 36.3695 46.8188C38.1566 56.2515 39.5481 60.9052 40.8986 66.3423C39.1934 59.6673 28.1571 64.1487 26.8201 57.2543Z" fill="url(#paint1_linear_43_882)"/>
<path fill-rule="evenodd" clip-rule="evenodd" d="M14.4468 30.147C16.2202 38.4359 22.0454 57.5207 25.3331 64.6971C22.2363 60.0277 15.5109 61.6573 12.9735 66.1386C11.582 68.583 11.2682 73.0486 13.8193 75.4773C12.9598 74.9132 10.5588 72.7352 9.44021 67.5645C7.88503 60.3254 3.75152 47.1322 0.586597 39.6268C-2.59197 32.0587 7.91231 25.1173 14.4468 30.147Z" fill="url(#paint2_linear_43_882)"/>
<path fill-rule="evenodd" clip-rule="evenodd" d="M7.02564 28.7368C5.37496 29.1599 3.84707 30.006 2.63293 31.1499C4.47459 33.9076 13.6283 61.2186 13.3964 65.4648C14.4468 63.9763 15.9747 62.8795 17.6391 62.3154C15.088 57.364 7.65316 31.9646 7.02564 28.7368Z" fill="url(#paint3_radial_43_882)"/>
<path fill-rule="evenodd" clip-rule="evenodd" d="M15.3335 33.9076C15.1698 33.2495 15.0061 32.6071 14.8697 32.0116C10.9408 29.0659 5.52499 30.4918 2.67383 33.7822C1.13229 35.5685 0.327416 37.9345 0.900377 40.3789C1.10501 40.8803 1.30963 41.413 1.52791 41.9458C1.13229 39.6894 1.90988 37.4644 3.315 35.8035C6.09795 32.4974 11.4729 31.0402 15.3335 33.9076ZM23.355 59.824C21.2814 57.8184 18.0346 57.7401 15.279 59.0406C10.8726 61.1089 8.3898 66.2953 10.6134 71.2153C9.89041 66.9064 12.6597 62.8011 16.002 61.1872C18.8532 59.8084 22.1545 59.7457 24.2144 62.049C23.9416 61.3596 23.6551 60.6075 23.355 59.824Z" fill="url(#paint4_linear_43_882)"/>
<path fill-rule="evenodd" clip-rule="evenodd" d="M220.181 75.4616C213.865 80.8831 197.699 76.8405 194.029 70.6356C193.333 69.4604 192.883 68.0972 193.115 66.3266C192.992 65.7782 200.837 40.6922 201.478 34.4403C201.955 41.7421 220.167 43.2149 224.696 41.7577C226.197 49.2318 225.842 71.0273 220.181 75.4616Z" fill="url(#paint5_linear_43_882)"/>
<path fill-rule="evenodd" clip-rule="evenodd" d="M207.194 57.2543C208.449 50.7674 203.429 47.0852 197.644 46.8188C195.857 56.2515 194.466 60.9052 193.115 66.3423C194.82 59.6673 205.857 64.1487 207.194 57.2543Z" fill="url(#paint6_linear_43_882)"/>
<path fill-rule="evenodd" clip-rule="evenodd" d="M219.553 30.147C217.78 38.4359 211.955 57.5207 208.667 64.6971C211.764 60.0277 218.489 61.6573 221.027 66.1386C222.418 68.583 222.732 73.0486 220.181 75.4773C221.04 74.9132 223.441 72.7352 224.56 67.5645C226.115 60.3254 230.249 47.1479 233.413 39.6268C236.606 32.0587 226.088 25.1173 219.553 30.147Z" fill="url(#paint7_linear_43_882)"/>
<path fill-rule="evenodd" clip-rule="evenodd" d="M226.988 28.7368C228.639 29.1599 230.167 30.006 231.381 31.1499C229.539 33.9076 220.385 61.2186 220.617 65.4648C219.567 63.9763 218.039 62.8795 216.375 62.3154C218.926 57.364 226.347 31.9646 226.988 28.7368Z" fill="url(#paint8_radial_43_882)"/>
<path fill-rule="evenodd" clip-rule="evenodd" d="M231.326 33.7822C228.475 30.4918 223.059 29.0502 219.13 32.0117C218.994 32.6071 218.83 33.2495 218.667 33.9076C222.541 31.0402 227.902 32.4974 230.685 35.8192C232.09 37.4801 232.868 39.7051 232.472 41.9614C232.69 41.413 232.895 40.8959 233.1 40.3945C233.686 37.9502 232.881 35.5685 231.326 33.7822ZM218.721 59.0406C215.965 57.7401 212.732 57.8184 210.645 59.824C210.345 60.6075 210.058 61.3596 209.786 62.049C211.846 59.7457 215.147 59.8083 217.998 61.1872C221.34 62.8011 224.11 66.9064 223.387 71.2153C225.61 66.2953 223.127 61.1089 218.721 59.0406Z" fill="url(#paint9_linear_43_882)"/>
<path fill-rule="evenodd" clip-rule="evenodd" d="M16.384 13.7103C15.1699 15.2302 15.1153 17.6746 16.2476 20.1033C21.4861 31.3849 25.5923 49.4669 26.8065 57.2543C26.3563 54.3869 28.348 52.0052 32.3451 50.172C44.0635 44.7975 63.1485 42.1025 116.993 42.1025V0C52.9853 0 23.7234 4.57533 16.384 13.7103Z" fill="url(#paint10_radial_43_882)"/>
<path fill-rule="evenodd" clip-rule="evenodd" d="M217.616 13.7103C218.83 15.2302 218.885 17.6746 217.752 20.1033C212.514 31.3849 208.408 49.4669 207.194 57.2543C207.644 54.3869 205.652 52.0052 201.655 50.172C189.937 44.7975 170.852 42.1025 117.007 42.1025V0C181.015 0 210.29 4.57533 217.616 13.7103Z" fill="url(#paint11_radial_43_882)"/>
<path fill-rule="evenodd" clip-rule="evenodd" d="M117.007 37.1511C61.9754 37.1511 41.6898 40.0655 30.4762 45.8787C27.7478 47.2105 26.0698 48.8714 25.606 50.7987C25.8106 51.7702 25.988 52.679 26.1517 53.5408C26.4518 51.3628 28.2798 49.4982 31.4038 48.0253C42.863 42.4315 62.5483 39.6268 116.993 39.6268H117.089V37.1511H117.007ZM18.2666 18.0036C26.1107 9.30735 54.1858 4.95139 117.007 4.95139H117.102V2.47569H117.007C53.5856 2.47569 24.9239 6.94134 17.3253 15.857C16.3704 16.9068 16.0021 18.3953 16.2203 20.0249C16.234 20.0562 16.2476 20.0719 16.2476 20.1033C16.4522 20.542 16.6569 21.0121 16.8615 21.4665C16.8888 20.1189 17.3663 18.9124 18.2666 18.0036Z" fill="url(#paint12_linear_43_882)"/>
<path fill-rule="evenodd" clip-rule="evenodd" d="M117.198 37.1511C172.229 37.1511 192.515 40.0655 203.729 45.8787C206.457 47.2105 207.971 48.7304 208.435 50.642C208.23 51.6135 208.053 52.5066 207.889 53.3684C207.589 51.1904 205.925 49.4982 202.787 48.0096C191.328 42.4158 171.643 39.6111 117.198 39.6111H117.102V37.1354L117.198 37.1511ZM215.938 18.0036C208.094 9.30735 180.019 4.95139 117.198 4.95139H117.102V2.47569H117.198C180.619 2.47569 209.281 6.94134 216.879 15.857C217.834 16.9068 218.257 17.8156 218.039 19.4452C218.025 19.4765 217.521 20.6203 217.316 21.0747C217.289 19.7429 216.839 18.9124 215.938 18.0036Z" fill="url(#paint13_linear_43_882)"/>
<path opacity="0.3" fill-rule="evenodd" clip-rule="evenodd" d="M217.616 13.7103C210.29 4.57533 181.015 0 117.007 0C52.9853 0 23.7234 4.57533 16.384 13.7103C15.1699 15.2302 15.1153 17.6589 16.2476 20.1033C21.4861 31.3849 25.5923 49.4669 26.8065 57.2543C26.3563 54.3869 28.348 52.0052 32.3451 50.172C44.0635 44.7975 63.1485 42.1025 116.993 42.1025C170.838 42.1025 189.923 44.7975 201.641 50.172C205.638 52.0052 207.63 54.3869 207.18 57.2543C208.408 49.4669 212.5 31.3692 217.739 20.1033C218.885 17.6746 218.83 15.2302 217.616 13.7103Z" fill="url(#paint14_radial_43_882)"/>
<path d="M66.9136 31.4632C66.7363 31.5416 66.4498 31.6199 66.0542 31.7139C65.6722 31.808 65.2903 31.8706 64.9083 31.902C64.1307 31.9646 63.5304 31.8706 63.1212 31.5886C62.7119 31.3222 62.48 30.6955 62.4118 29.724L62.1663 25.7754C61.7024 25.086 61.184 24.3339 60.6384 23.4878C60.0927 22.6573 59.547 21.7955 59.015 20.918C58.4829 20.0406 57.9782 19.1788 57.528 18.3327C57.0642 17.4865 56.6822 16.6874 56.3821 15.9823C56.5867 15.6063 56.8595 15.2616 57.2279 14.9482C57.5962 14.6191 58.0464 14.4468 58.6057 14.3998C59.2605 14.3371 59.8198 14.4624 60.2564 14.7288C60.6929 15.0109 61.1295 15.5593 61.5524 16.3897L63.967 21.0904L64.1171 21.0747C64.3217 20.448 64.4854 19.8839 64.6354 19.3668C64.7855 18.8497 64.9219 18.3483 65.0583 17.8313C65.1948 17.3142 65.3448 16.7971 65.4949 16.233C65.6449 15.6846 65.8223 15.0422 66.0133 14.3214C66.3134 14.1177 66.6408 13.961 67.0091 13.82C67.3775 13.6947 67.7322 13.6163 68.0732 13.585C68.6598 13.538 69.1782 13.679 69.6147 13.9924C70.0513 14.3214 70.2968 14.8385 70.3378 15.5593C70.3514 15.7943 70.3241 16.0763 70.2696 16.4211C70.2013 16.7658 70.0377 17.2828 69.7785 17.9723C69.5193 18.6774 69.1236 19.6175 68.6189 20.8084C68.1005 21.9992 67.4048 23.5661 66.5317 25.509L66.9136 31.4632ZM72.0157 22.2342C71.9748 20.7143 72.1385 19.3511 72.5205 18.176C72.9025 16.9851 73.4345 15.9823 74.1302 15.1675C74.826 14.3528 75.6581 13.7103 76.6267 13.2559C77.5953 12.8015 78.6457 12.5508 79.778 12.5038C80.9103 12.4568 81.9743 12.6135 82.9702 12.9896C83.9661 13.3656 84.8391 13.9297 85.5894 14.6818C86.3398 15.4496 86.9536 16.4054 87.4038 17.5492C87.854 18.7087 88.1132 20.0406 88.1541 21.5605C88.1951 23.0804 88.045 24.4436 87.663 25.6344C87.2947 26.8252 86.7627 27.8437 86.0669 28.6585C85.3712 29.4733 84.539 30.1157 83.5568 30.5701C82.5882 31.0245 81.5242 31.2752 80.3646 31.3222C79.205 31.3692 78.1273 31.1969 77.1315 30.8208C76.1356 30.4448 75.2625 29.865 74.5258 29.0972C73.7892 28.3295 73.1889 27.358 72.7524 26.2141C72.3022 25.0703 72.0567 23.7385 72.0157 22.2342ZM76.5994 22.0462C76.654 23.8168 77.0087 25.133 77.6635 25.9948C78.3183 26.8409 79.1777 27.2483 80.2282 27.2013C81.2922 27.1543 82.138 26.6842 82.7383 25.7754C83.3385 24.8666 83.6114 23.5348 83.5568 21.7485C83.5022 19.9936 83.1475 18.6931 82.5064 17.8313C81.8652 16.9851 81.0058 16.5777 79.928 16.6248C78.8776 16.6718 78.0455 17.1418 77.4316 18.035C76.8177 18.9438 76.5448 20.2756 76.5994 22.0462ZM104.593 23.6758C104.606 24.7256 104.456 25.6971 104.156 26.5745C103.856 27.452 103.406 28.2041 102.819 28.8152C102.233 29.4419 101.51 29.9277 100.664 30.2724C99.818 30.6171 98.863 30.8051 97.7853 30.8208C96.7213 30.8365 95.7527 30.6798 94.8932 30.3664C94.0338 30.053 93.3108 29.583 92.7105 28.9719C92.1103 28.3608 91.6465 27.6244 91.3191 26.7626C90.9917 25.9008 90.8279 24.945 90.8143 23.8795L90.6779 12.6918C90.8689 12.6448 91.1554 12.5978 91.5646 12.5195C91.9739 12.4411 92.3558 12.4098 92.7378 12.3941C93.1334 12.3941 93.4745 12.4098 93.7746 12.4882C94.0747 12.5508 94.3203 12.6762 94.5249 12.8485C94.7295 13.0209 94.8932 13.2559 94.9887 13.5693C95.0979 13.8827 95.1524 14.2901 95.1524 14.7915L95.2616 23.7228C95.2752 24.6629 95.5071 25.3837 95.9573 25.9164C96.4075 26.4335 96.9941 26.6842 97.7171 26.6842C98.4538 26.6685 99.0268 26.4022 99.4633 25.8694C99.8998 25.3367 100.118 24.6002 100.104 23.6601L99.9953 12.5508C100.186 12.5038 100.473 12.4568 100.882 12.3785C101.291 12.3001 101.673 12.2688 102.055 12.2531C102.451 12.2531 102.792 12.2688 103.092 12.3471C103.392 12.4098 103.638 12.5352 103.842 12.7075C104.047 12.8799 104.211 13.1149 104.306 13.4283C104.415 13.7417 104.47 14.1491 104.47 14.6505L104.593 23.6758ZM115.383 30.3194C114.647 30.3194 114.074 30.0687 113.651 29.583C113.228 29.0972 113.01 28.4235 113.01 27.593L113.023 12.4568C113.214 12.4255 113.514 12.3628 113.91 12.3001C114.319 12.2374 114.715 12.2061 115.083 12.2061C115.479 12.2061 115.82 12.2374 116.12 12.3158C116.42 12.3785 116.666 12.5038 116.87 12.6762C117.075 12.8485 117.225 13.0992 117.334 13.4126C117.43 13.726 117.484 14.1334 117.484 14.6505L117.471 26.2141H123.309C123.432 26.4335 123.541 26.7156 123.637 27.0759C123.732 27.4363 123.787 27.8124 123.787 28.2041C123.787 28.9875 123.637 29.536 123.35 29.865C123.064 30.1941 122.682 30.3507 122.204 30.3507L115.383 30.3194ZM124.633 21.3254C124.646 19.8055 124.865 18.458 125.287 17.2828C125.71 16.1077 126.297 15.1362 127.02 14.3528C127.743 13.5693 128.602 12.9739 129.585 12.5822C130.567 12.1748 131.631 11.9867 132.763 12.0024C133.896 12.0181 134.96 12.2374 135.928 12.6448C136.897 13.0679 137.756 13.679 138.479 14.4781C139.202 15.2772 139.775 16.2644 140.171 17.4395C140.58 18.6147 140.771 19.9622 140.757 21.4821C140.744 23.002 140.525 24.3495 140.116 25.5404C139.693 26.7156 139.12 27.7027 138.397 28.4861C137.674 29.2696 136.815 29.865 135.819 30.2567C134.837 30.6641 133.759 30.8522 132.6 30.8365C131.44 30.8208 130.376 30.6014 129.394 30.1784C128.411 29.7553 127.566 29.1286 126.856 28.3295C126.147 27.5147 125.601 26.5275 125.192 25.3524C124.81 24.1615 124.619 22.8297 124.633 21.3254ZM129.216 21.3724C129.203 23.143 129.503 24.4749 130.13 25.368C130.758 26.2455 131.59 26.6999 132.64 26.7156C133.718 26.7312 134.564 26.2925 135.205 25.4307C135.846 24.5532 136.16 23.237 136.174 21.4508C136.187 19.6959 135.887 18.3797 135.273 17.4865C134.659 16.6091 133.814 16.1547 132.75 16.139C131.699 16.1233 130.84 16.5464 130.199 17.4239C129.557 18.27 129.23 19.6019 129.216 21.3724ZM147.81 23.5504C147.074 23.237 146.392 22.908 145.791 22.5946C145.191 22.2656 144.673 21.8895 144.236 21.4508C143.8 21.0121 143.472 20.4793 143.24 19.8839C143.008 19.2728 142.899 18.552 142.926 17.6902C142.967 16.0293 143.554 14.7288 144.7 13.7573C145.832 12.8015 147.415 12.3471 149.42 12.4098C150.157 12.4411 150.825 12.5195 151.453 12.6448C152.08 12.7859 152.612 12.9739 153.062 13.2403C153.513 13.491 153.854 13.82 154.099 14.2117C154.345 14.6035 154.468 15.0422 154.454 15.5593C154.44 16.0607 154.331 16.4994 154.113 16.8598C153.895 17.2202 153.649 17.5179 153.349 17.7529C152.981 17.4709 152.489 17.2045 151.862 16.9851C151.234 16.7658 150.552 16.6404 149.802 16.6091C149.038 16.5777 148.479 16.6874 148.11 16.9225C147.742 17.1575 147.565 17.4552 147.551 17.8313C147.537 18.129 147.647 18.364 147.865 18.552C148.083 18.7401 148.411 18.9281 148.847 19.1004L150.184 19.6489C151.766 20.2913 152.981 21.0747 153.813 22.0149C154.645 22.955 155.04 24.1929 155.013 25.7597C154.972 27.4207 154.372 28.7368 153.199 29.724C152.039 30.7111 150.348 31.1655 148.138 31.1029C147.36 31.0715 146.637 30.9775 145.969 30.8051C145.3 30.6328 144.714 30.3978 144.222 30.1C143.731 29.8023 143.349 29.4419 143.077 29.0032C142.804 28.5802 142.681 28.0944 142.695 27.546C142.708 26.9819 142.858 26.4962 143.158 26.1045C143.459 25.7127 143.786 25.415 144.127 25.2113C144.591 25.6501 145.164 26.0418 145.846 26.3865C146.528 26.7156 147.278 26.9036 148.083 26.9349C148.915 26.9663 149.502 26.8409 149.857 26.5589C150.198 26.2768 150.389 25.9478 150.389 25.556C150.402 25.1643 150.266 24.8666 150.007 24.6473C149.734 24.4279 149.365 24.2242 148.874 24.0048L147.81 23.5504ZM157.974 15.9353C158.014 15.0892 158.26 14.4468 158.697 13.9767C159.147 13.5066 159.733 13.3029 160.456 13.3499L168.86 13.8513C168.969 14.0707 169.064 14.3684 169.146 14.7131C169.228 15.0735 169.255 15.4496 169.242 15.8256C169.214 16.5621 169.051 17.0792 168.751 17.3769C168.451 17.6746 168.082 17.7999 167.618 17.7843L162.243 17.4709L162.121 20.1973L167.85 20.542C167.959 20.7614 168.055 21.0434 168.137 21.3881C168.219 21.7328 168.246 22.1089 168.232 22.5006C168.205 23.237 168.041 23.7541 167.755 24.0518C167.468 24.3495 167.1 24.4749 166.636 24.4592L161.943 24.1772L161.807 27.2483L168.355 27.64C168.464 27.8594 168.56 28.1571 168.642 28.5018C168.723 28.8622 168.751 29.2383 168.737 29.6143C168.71 30.3507 168.546 30.8835 168.246 31.1812C167.946 31.4789 167.577 31.6199 167.114 31.6043L159.679 31.1655C158.942 31.1185 158.383 30.8365 157.974 30.3351C157.578 29.818 157.387 29.1442 157.428 28.3138L157.974 15.9353ZM176.731 15.2929C176.704 15.7473 176.649 16.3897 176.581 17.2358C176.513 18.082 176.417 18.9908 176.295 19.9779C176.185 20.9494 176.049 21.9365 175.899 22.908C175.749 23.8795 175.585 24.7256 175.422 25.4307C175.353 25.4777 175.244 25.5404 175.108 25.5717C174.971 25.6187 174.821 25.6501 174.671 25.6814C174.521 25.7127 174.357 25.7284 174.207 25.7284C174.057 25.7284 173.921 25.7284 173.798 25.7284C173.307 25.6814 172.898 25.5561 172.584 25.3524C172.27 25.1487 172.079 24.7883 172.025 24.2712C171.97 23.8168 171.943 23.1274 171.943 22.2029C171.943 21.2784 171.956 20.2913 171.97 19.2101C171.984 18.129 172.025 17.0635 172.066 16.0137C172.107 14.9638 172.161 14.0707 172.202 13.3186C172.557 13.1306 172.952 12.9896 173.389 12.9112C173.825 12.8172 174.262 12.8015 174.685 12.8329C175.381 12.8955 175.913 13.1306 176.267 13.5223C176.636 13.9454 176.786 14.5408 176.731 15.2929ZM171.083 29.6143C171.138 28.8152 171.397 28.1728 171.861 27.7027C172.325 27.217 172.939 27.0133 173.703 27.0916C174.467 27.1543 175.04 27.4677 175.449 28.0161C175.844 28.5645 176.022 29.2383 175.967 30.0374C175.913 30.8365 175.653 31.4789 175.19 31.949C174.726 32.4347 174.112 32.6384 173.348 32.5601C172.584 32.4974 172.011 32.184 171.602 31.6356C171.206 31.0872 171.042 30.4134 171.083 29.6143Z" fill="url(#paint15_linear_43_882)"/>
</g>
<defs>
<linearGradient id="paint0_linear_43_882" x1="8.7755" y1="64.5595" x2="39.3454" y2="53.8062" gradientUnits="userSpaceOnUse">
<stop stop-color="#0F0F0F"/>
<stop offset="0.0943" stop-color="#171717"/>
<stop offset="0.3105" stop-color="#242424"/>
<stop offset="0.5037" stop-color="#292929"/>
<stop offset="0.7468" stop-color="#232323"/>
<stop offset="1" stop-color="#161616"/>
</linearGradient>
<linearGradient id="paint1_linear_43_882" x1="26.6197" y1="56.5746" x2="40.8936" y2="56.5746" gradientUnits="userSpaceOnUse">
<stop stop-color="#141414"/>
<stop offset="1" stop-color="#3F3F3F"/>
</linearGradient>
<linearGradient id="paint2_linear_43_882" x1="4.73115" y1="54.6558" x2="21.0475" y2="48.9164" gradientUnits="userSpaceOnUse">
<stop stop-color="#292929"/>
<stop offset="0.3866" stop-color="#616161"/>
<stop offset="0.5868" stop-color="#404040"/>
<stop offset="0.7835" stop-color="#272727"/>
<stop offset="0.9015" stop-color="#1D1D1D"/>
</linearGradient>
<radialGradient id="paint3_radial_43_882" cx="0" cy="0" r="1" gradientUnits="userSpaceOnUse" gradientTransform="translate(5.77549 24.1148) scale(42.0604 48.31)">
<stop offset="0.00371747" stop-color="#8B8B8B"/>
<stop offset="1"/>
</radialGradient>
<linearGradient id="paint4_linear_43_882" x1="4.2241" y1="53.1594" x2="20.3171" y2="47.4986" gradientUnits="userSpaceOnUse">
<stop offset="0.1041" stop-color="#474747"/>
<stop offset="0.4981" stop-color="#CACACA"/>
<stop offset="1" stop-color="#474747"/>
</linearGradient>
<linearGradient id="paint5_linear_43_882" x1="195.698" y1="50.8548" x2="226.269" y2="61.6083" gradientUnits="userSpaceOnUse">
<stop stop-color="#161616"/>
<stop offset="0.2532" stop-color="#232323"/>
<stop offset="0.4963" stop-color="#292929"/>
<stop offset="0.6895" stop-color="#242424"/>
<stop offset="0.9057" stop-color="#171717"/>
<stop offset="1" stop-color="#0F0F0F"/>
</linearGradient>
<linearGradient id="paint6_linear_43_882" x1="193.112" y1="56.5746" x2="207.386" y2="56.5746" gradientUnits="userSpaceOnUse">
<stop stop-color="#3F3F3F"/>
<stop offset="1" stop-color="#141414"/>
</linearGradient>
<linearGradient id="paint7_linear_43_882" x1="213.512" y1="47.3409" x2="229.829" y2="53.0804" gradientUnits="userSpaceOnUse">
<stop offset="0.0985" stop-color="#1D1D1D"/>
<stop offset="0.2165" stop-color="#272727"/>
<stop offset="0.4132" stop-color="#404040"/>
<stop offset="0.6134" stop-color="#616161"/>
<stop offset="1" stop-color="#292929"/>
</linearGradient>
<radialGradient id="paint8_radial_43_882" cx="0" cy="0" r="1" gradientUnits="userSpaceOnUse" gradientTransform="translate(234.033 22.7819) scale(41.7661 47.972)">
<stop offset="0.00371747" stop-color="#8B8B8B"/>
<stop offset="1"/>
</radialGradient>
<linearGradient id="paint9_linear_43_882" x1="214.236" y1="45.9449" x2="230.329" y2="51.6059" gradientUnits="userSpaceOnUse">
<stop stop-color="#474747"/>
<stop offset="0.5019" stop-color="#CACACA"/>
<stop offset="0.8959" stop-color="#474747"/>
</linearGradient>
<radialGradient id="paint10_radial_43_882" cx="0" cy="0" r="1" gradientUnits="userSpaceOnUse" gradientTransform="translate(-25.7442 55.1313) scale(145.748 167.404)">
<stop offset="0.3285" stop-color="#373737"/>
<stop offset="0.3696" stop-color="#6E6E6E"/>
<stop offset="0.3805" stop-color="#595959"/>
<stop offset="0.3956" stop-color="#424242"/>
<stop offset="0.4122" stop-color="#333333"/>
<stop offset="0.4311" stop-color="#292929"/>
<stop offset="0.4572" stop-color="#262626"/>
<stop offset="0.5663" stop-color="#303030"/>
<stop offset="0.8051" stop-color="#3F3F3F"/>
<stop offset="1" stop-color="#444444"/>
</radialGradient>
<radialGradient id="paint11_radial_43_882" cx="0" cy="0" r="1" gradientUnits="userSpaceOnUse" gradientTransform="translate(259.75 55.1313) rotate(180) scale(145.748 167.404)">
<stop offset="0.3285" stop-color="#373737"/>
<stop offset="0.3696" stop-color="#6E6E6E"/>
<stop offset="0.3805" stop-color="#595959"/>
<stop offset="0.3956" stop-color="#424242"/>
<stop offset="0.4122" stop-color="#333333"/>
<stop offset="0.4311" stop-color="#292929"/>
<stop offset="0.4572" stop-color="#262626"/>
<stop offset="0.5663" stop-color="#303030"/>
<stop offset="0.8051" stop-color="#3F3F3F"/>
<stop offset="1" stop-color="#444444"/>
</radialGradient>
<linearGradient id="paint12_linear_43_882" x1="16.1584" y1="28.0137" x2="117.098" y2="28.0137" gradientUnits="userSpaceOnUse">
<stop stop-color="#9A9A9A"/>
<stop offset="0.0669" stop-color="#DBDBDB"/>
<stop offset="0.5242" stop-color="#A9A9A9"/>
<stop offset="1" stop-color="#D6D6D6"/>
</linearGradient>
<linearGradient id="paint13_linear_43_882" x1="117.098" y1="27.9301" x2="218.085" y2="27.9301" gradientUnits="userSpaceOnUse">
<stop stop-color="#D6D6D6"/>
<stop offset="0.4758" stop-color="#A9A9A9"/>
<stop offset="0.9331" stop-color="#DBDBDB"/>
<stop offset="1" stop-color="#9A9A9A"/>
</linearGradient>
<radialGradient id="paint14_radial_43_882" cx="0" cy="0" r="1" gradientUnits="userSpaceOnUse" gradientTransform="translate(117.003 82.9691) scale(126.72 145.549)">
<stop stop-color="#505050"/>
<stop offset="0.135" stop-color="#434343"/>
<stop offset="0.6251" stop-color="#171717"/>
<stop offset="0.8736" stop-color="#060606"/>
</radialGradient>
<linearGradient id="paint15_linear_43_882" x1="116.572" y1="32.5767" x2="116.572" y2="12.0043" gradientUnits="userSpaceOnUse">
<stop stop-color="#ADADAD"/>
<stop offset="1" stop-color="#E2E2E2"/>
</linearGradient>
<clipPath id="clip0_43_882">
<rect width="234" height="78" fill="white"/>
</clipPath>
</defs>
</svg>
