<svg width="216" height="216" viewBox="0 0 216 216" fill="none" xmlns="http://www.w3.org/2000/svg">
<g filter="url(#filter0_d_2_26)">
<path fill-rule="evenodd" clip-rule="evenodd" d="M194.906 75.226C194.906 73.1626 194.907 71.099 194.894 69.0355C194.884 67.2971 194.864 65.5592 194.817 63.8217C194.715 60.0348 194.491 56.2154 193.818 52.4706C193.135 48.6718 192.019 45.1363 190.262 41.6848C188.534 38.2923 186.276 35.1879 183.583 32.4966C180.891 29.8052 177.785 27.5495 174.392 25.8225C170.937 24.0644 167.397 22.9494 163.594 22.2666C159.849 21.5941 156.029 21.3711 152.242 21.2688C150.503 21.2218 148.764 21.202 147.025 21.1912C144.96 21.1785 142.896 21.1796 140.831 21.1796L116.859 21.0938H98.9291L75.3809 21.1796C73.3122 21.1796 71.2436 21.1785 69.1749 21.1912C67.4322 21.202 65.6902 21.2218 63.9481 21.2688C60.1523 21.3711 56.3232 21.5943 52.5692 22.2676C48.7612 22.9502 45.2166 24.0648 41.7568 25.8217C38.3559 27.5488 35.244 29.8048 32.5457 32.4966C29.8478 35.1877 27.5864 38.2914 25.8552 41.6833C24.0926 45.1365 22.9751 48.6742 22.2904 52.475C21.6162 56.2183 21.3929 60.0365 21.2901 63.8217C21.2433 65.5594 21.2231 67.2973 21.2125 69.0355C21.1999 71.0993 21.0938 73.6628 21.0938 75.7264L21.0944 98.9484L21.0938 117.07L21.2009 140.785C21.2009 142.852 21.2001 144.918 21.2125 146.984C21.2231 148.725 21.2433 150.465 21.2903 152.205C21.3929 155.997 21.6167 159.822 22.2914 163.572C22.9759 167.376 24.0933 170.916 25.8544 174.372C27.5857 177.77 29.8476 180.878 32.5457 183.573C35.2438 186.268 38.3548 188.527 41.7551 190.256C45.217 192.017 48.7633 193.133 52.5736 193.817C56.326 194.49 60.1538 194.714 63.9481 194.816C65.6902 194.863 67.4324 194.883 69.1751 194.894C71.2438 194.906 73.3122 194.906 75.3809 194.906L99.1419 194.906H117.116L140.831 194.905C142.896 194.905 144.96 194.906 147.025 194.894C148.764 194.883 150.503 194.863 152.242 194.816C156.03 194.714 159.852 194.49 163.599 193.816C167.399 193.132 170.937 192.016 174.39 190.257C177.785 188.528 180.89 186.269 183.583 183.573C186.276 180.878 188.533 177.77 190.261 174.374C192.02 170.916 193.135 167.374 193.819 163.567C194.492 159.819 194.715 155.996 194.817 152.205C194.864 150.465 194.884 148.725 194.894 146.984C194.907 144.918 194.906 142.852 194.906 140.785C194.906 140.785 194.905 117.489 194.905 117.07V98.9294C194.905 98.6202 194.906 75.226 194.906 75.226" fill="#EBDEDE"/>
</g>
<path fill-rule="evenodd" clip-rule="evenodd" d="M194.906 75.226C194.906 73.1626 194.907 71.099 194.894 69.0355C194.884 67.2971 194.864 65.5592 194.817 63.8217C194.715 60.0348 194.491 56.2154 193.818 52.4706C193.135 48.6718 192.019 45.1363 190.262 41.6848C188.534 38.2923 186.276 35.1879 183.583 32.4966C180.891 29.8052 177.785 27.5495 174.392 25.8225C170.937 24.0644 167.397 22.9494 163.594 22.2666C159.849 21.5941 156.029 21.3711 152.242 21.2688C150.503 21.2218 148.764 21.202 147.025 21.1912C144.96 21.1785 142.896 21.1796 140.831 21.1796L116.859 21.0938H98.9291L75.3809 21.1796C73.3122 21.1796 71.2436 21.1785 69.1749 21.1912C67.4322 21.202 65.6902 21.2218 63.9481 21.2688C60.1523 21.3711 56.3232 21.5943 52.5692 22.2676C48.7612 22.9502 45.2166 24.0648 41.7568 25.8217C38.3559 27.5488 35.244 29.8048 32.5457 32.4966C29.8478 35.1877 27.5864 38.2914 25.8552 41.6833C24.0926 45.1365 22.9751 48.6742 22.2904 52.475C21.6162 56.2183 21.3929 60.0365 21.2901 63.8217C21.2433 65.5594 21.2231 67.2973 21.2125 69.0355C21.1999 71.0993 21.0938 73.6628 21.0938 75.7264L21.0944 98.9484L21.0938 117.07L21.2009 140.785C21.2009 142.852 21.2001 144.918 21.2125 146.984C21.2231 148.725 21.2433 150.465 21.2903 152.205C21.3929 155.997 21.6167 159.822 22.2914 163.572C22.9759 167.376 24.0933 170.916 25.8544 174.372C27.5857 177.77 29.8476 180.878 32.5457 183.573C35.2438 186.268 38.3548 188.527 41.7551 190.256C45.217 192.017 48.7633 193.133 52.5736 193.817C56.326 194.49 60.1538 194.714 63.9481 194.816C65.6902 194.863 67.4324 194.883 69.1751 194.894C71.2438 194.906 73.3122 194.906 75.3809 194.906L99.1419 194.906H117.116L140.831 194.905C142.896 194.905 144.96 194.906 147.025 194.894C148.764 194.883 150.503 194.863 152.242 194.816C156.03 194.714 159.852 194.49 163.599 193.816C167.399 193.132 170.937 192.016 174.39 190.257C177.785 188.528 180.89 186.269 183.583 183.573C186.276 180.878 188.533 177.77 190.261 174.374C192.02 170.916 193.135 167.374 193.819 163.567C194.492 159.819 194.715 155.996 194.817 152.205C194.864 150.465 194.884 148.725 194.894 146.984C194.907 144.918 194.906 142.852 194.906 140.785C194.906 140.785 194.905 117.489 194.905 117.07V98.9294C194.905 98.6202 194.906 75.226 194.906 75.226" fill="url(#paint0_linear_2_26)"/>
<g filter="url(#filter1_dddii_2_26)">
<path d="M143.121 72.5625L72.7734 142.91" stroke="white" stroke-width="16.2422" stroke-linecap="round"/>
</g>
<g filter="url(#filter2_dddii_2_26)">
<path d="M72.7734 72.5625L143.121 142.91" stroke="white" stroke-width="16.2422" stroke-linecap="round"/>
</g>
<defs>
<filter id="filter0_d_2_26" x="18.9844" y="21.0938" width="178.031" height="178.031" filterUnits="userSpaceOnUse" color-interpolation-filters="sRGB">
<feFlood flood-opacity="0" result="BackgroundImageFix"/>
<feColorMatrix in="SourceAlpha" type="matrix" values="0 0 0 0 0 0 0 0 0 0 0 0 0 0 0 0 0 0 127 0" result="hardAlpha"/>
<feOffset dy="2.10938"/>
<feGaussianBlur stdDeviation="1.05469"/>
<feColorMatrix type="matrix" values="0 0 0 0 0 0 0 0 0 0 0 0 0 0 0 0 0 0 0.3 0"/>
<feBlend mode="normal" in2="BackgroundImageFix" result="effect1_dropShadow_2_26"/>
<feBlend mode="normal" in="SourceGraphic" in2="effect1_dropShadow_2_26" result="shape"/>
</filter>
<filter id="filter1_dddii_2_26" x="54.5273" y="59.3789" width="106.84" height="106.84" filterUnits="userSpaceOnUse" color-interpolation-filters="sRGB">
<feFlood flood-opacity="0" result="BackgroundImageFix"/>
<feColorMatrix in="SourceAlpha" type="matrix" values="0 0 0 0 0 0 0 0 0 0 0 0 0 0 0 0 0 0 127 0" result="hardAlpha"/>
<feOffset dy="2.53125"/>
<feGaussianBlur stdDeviation="2.53125"/>
<feComposite in2="hardAlpha" operator="out"/>
<feColorMatrix type="matrix" values="0 0 0 0 0 0 0 0 0 0 0 0 0 0 0 0 0 0 0.2 0"/>
<feBlend mode="normal" in2="BackgroundImageFix" result="effect1_dropShadow_2_26"/>
<feColorMatrix in="SourceAlpha" type="matrix" values="0 0 0 0 0 0 0 0 0 0 0 0 0 0 0 0 0 0 127 0" result="hardAlpha"/>
<feOffset dy="3.375"/>
<feGaussianBlur stdDeviation="3.375"/>
<feComposite in2="hardAlpha" operator="out"/>
<feColorMatrix type="matrix" values="0 0 0 0 0 0 0 0 0 0 0 0 0 0 0 0 0 0 0.15 0"/>
<feBlend mode="normal" in2="effect1_dropShadow_2_26" result="effect2_dropShadow_2_26"/>
<feColorMatrix in="SourceAlpha" type="matrix" values="0 0 0 0 0 0 0 0 0 0 0 0 0 0 0 0 0 0 127 0" result="hardAlpha"/>
<feOffset dy="5.0625"/>
<feGaussianBlur stdDeviation="5.0625"/>
<feComposite in2="hardAlpha" operator="out"/>
<feColorMatrix type="matrix" values="0 0 0 0 0 0 0 0 0 0 0 0 0 0 0 0 0 0 0.1 0"/>
<feBlend mode="normal" in2="effect2_dropShadow_2_26" result="effect3_dropShadow_2_26"/>
<feBlend mode="normal" in="SourceGraphic" in2="effect3_dropShadow_2_26" result="shape"/>
<feColorMatrix in="SourceAlpha" type="matrix" values="0 0 0 0 0 0 0 0 0 0 0 0 0 0 0 0 0 0 127 0" result="hardAlpha"/>
<feOffset dy="-0.84375"/>
<feGaussianBlur stdDeviation="1.6875"/>
<feComposite in2="hardAlpha" operator="arithmetic" k2="-1" k3="1"/>
<feColorMatrix type="matrix" values="0 0 0 0 1 0 0 0 0 0.203922 0 0 0 0 0.2 0 0 0 0.33 0"/>
<feBlend mode="normal" in2="shape" result="effect4_innerShadow_2_26"/>
<feColorMatrix in="SourceAlpha" type="matrix" values="0 0 0 0 0 0 0 0 0 0 0 0 0 0 0 0 0 0 127 0" result="hardAlpha"/>
<feOffset dy="-1.6875"/>
<feGaussianBlur stdDeviation="3.375"/>
<feComposite in2="hardAlpha" operator="arithmetic" k2="-1" k3="1"/>
<feColorMatrix type="matrix" values="0 0 0 0 1 0 0 0 0 0.203922 0 0 0 0 0.2 0 0 0 0.66 0"/>
<feBlend mode="normal" in2="effect4_innerShadow_2_26" result="effect5_innerShadow_2_26"/>
</filter>
<filter id="filter2_dddii_2_26" x="54.5273" y="59.3789" width="106.84" height="106.84" filterUnits="userSpaceOnUse" color-interpolation-filters="sRGB">
<feFlood flood-opacity="0" result="BackgroundImageFix"/>
<feColorMatrix in="SourceAlpha" type="matrix" values="0 0 0 0 0 0 0 0 0 0 0 0 0 0 0 0 0 0 127 0" result="hardAlpha"/>
<feOffset dy="2.53125"/>
<feGaussianBlur stdDeviation="2.53125"/>
<feComposite in2="hardAlpha" operator="out"/>
<feColorMatrix type="matrix" values="0 0 0 0 0 0 0 0 0 0 0 0 0 0 0 0 0 0 0.2 0"/>
<feBlend mode="normal" in2="BackgroundImageFix" result="effect1_dropShadow_2_26"/>
<feColorMatrix in="SourceAlpha" type="matrix" values="0 0 0 0 0 0 0 0 0 0 0 0 0 0 0 0 0 0 127 0" result="hardAlpha"/>
<feOffset dy="3.375"/>
<feGaussianBlur stdDeviation="3.375"/>
<feComposite in2="hardAlpha" operator="out"/>
<feColorMatrix type="matrix" values="0 0 0 0 0 0 0 0 0 0 0 0 0 0 0 0 0 0 0.15 0"/>
<feBlend mode="normal" in2="effect1_dropShadow_2_26" result="effect2_dropShadow_2_26"/>
<feColorMatrix in="SourceAlpha" type="matrix" values="0 0 0 0 0 0 0 0 0 0 0 0 0 0 0 0 0 0 127 0" result="hardAlpha"/>
<feOffset dy="5.0625"/>
<feGaussianBlur stdDeviation="5.0625"/>
<feComposite in2="hardAlpha" operator="out"/>
<feColorMatrix type="matrix" values="0 0 0 0 0 0 0 0 0 0 0 0 0 0 0 0 0 0 0.1 0"/>
<feBlend mode="normal" in2="effect2_dropShadow_2_26" result="effect3_dropShadow_2_26"/>
<feBlend mode="normal" in="SourceGraphic" in2="effect3_dropShadow_2_26" result="shape"/>
<feColorMatrix in="SourceAlpha" type="matrix" values="0 0 0 0 0 0 0 0 0 0 0 0 0 0 0 0 0 0 127 0" result="hardAlpha"/>
<feOffset dy="-0.84375"/>
<feGaussianBlur stdDeviation="1.6875"/>
<feComposite in2="hardAlpha" operator="arithmetic" k2="-1" k3="1"/>
<feColorMatrix type="matrix" values="0 0 0 0 1 0 0 0 0 0.203922 0 0 0 0 0.2 0 0 0 0.33 0"/>
<feBlend mode="normal" in2="shape" result="effect4_innerShadow_2_26"/>
<feColorMatrix in="SourceAlpha" type="matrix" values="0 0 0 0 0 0 0 0 0 0 0 0 0 0 0 0 0 0 127 0" result="hardAlpha"/>
<feOffset dy="-1.6875"/>
<feGaussianBlur stdDeviation="3.375"/>
<feComposite in2="hardAlpha" operator="arithmetic" k2="-1" k3="1"/>
<feColorMatrix type="matrix" values="0 0 0 0 1 0 0 0 0 0.203922 0 0 0 0 0.2 0 0 0 0.66 0"/>
<feBlend mode="normal" in2="effect4_innerShadow_2_26" result="effect5_innerShadow_2_26"/>
</filter>
<linearGradient id="paint0_linear_2_26" x1="108" y1="194.906" x2="108" y2="21.0937" gradientUnits="userSpaceOnUse">
<stop stop-color="#C40C00"/>
<stop offset="1" stop-color="#FF6230"/>
</linearGradient>
</defs>
</svg>
