<svg width="60" height="81" viewBox="0 0 60 81" fill="none" xmlns="http://www.w3.org/2000/svg">
<g filter="url(#filter0_d_43_782)">
<path d="M25.1031 64.454C25.435 63.3069 25.765 62.1598 26.0978 61.0127C27.1529 57.3748 28.2053 53.7368 29.2695 50.1016C29.3669 49.7689 29.2731 49.7102 28.9548 49.7129C27.3026 49.7265 25.6496 49.7193 23.9975 49.7193C23.8487 49.7193 23.6999 49.7193 23.506 49.7193C23.6512 49.3017 23.7639 48.9148 23.9208 48.5478C24.0561 48.2322 24.0453 48.1005 23.6449 48.1194C23.0307 48.1483 22.4121 48.0996 21.7979 48.1348C21.4526 48.1546 21.3525 48.0139 21.2569 47.7163C20.2847 44.6808 19.2945 41.6498 18.3115 38.6179C17.7299 36.8242 17.1599 35.026 16.5665 33.2359C16.4682 32.941 16.5151 32.8878 16.8145 32.8896C18.647 32.9013 20.4795 32.8968 22.3129 32.8941C22.5068 32.8941 22.6105 32.9058 22.6709 33.1574C23.3563 36.0108 24.0651 38.8578 24.7694 41.7147C24.9191 41.6814 24.9254 41.52 24.9534 41.3874C25.4115 39.2483 25.9806 37.1371 26.5244 35.0188C26.6127 34.6743 26.5316 34.6157 26.215 34.6202C25.2239 34.6346 24.2328 34.6265 23.1272 34.6265C27.2584 28.5257 31.3238 22.5205 35.4009 16.5C35.5362 16.6326 35.4325 16.7579 35.4009 16.8688C34.142 21.2264 32.8804 25.5831 31.6169 29.9397C31.4735 30.433 31.4699 30.433 31.9957 30.433C33.7939 30.433 35.593 30.433 37.4336 30.433C37.1793 31.15 36.9358 31.8345 36.6833 32.546C38.0018 32.6362 39.2562 32.8256 40.3988 33.4487C42.0121 34.3289 42.8923 35.6843 43.0348 37.5222C43.0564 37.8072 42.978 37.8703 42.6975 37.8676C41.1049 37.8523 39.5132 37.855 37.9206 37.8649C37.6843 37.8667 37.6005 37.8153 37.559 37.561C37.4084 36.6402 36.8195 36.2705 35.896 36.4833C35.6715 36.5347 35.4622 36.6231 35.409 36.8891C35.3549 37.1651 35.5299 37.3058 35.7337 37.4203C36.3938 37.7918 37.1288 37.9524 37.8475 38.1562C38.8134 38.4303 39.7756 38.7108 40.6838 39.1482C42.5866 40.0653 43.6192 41.5182 43.4686 43.6924C43.3252 45.7648 42.1835 47.0823 40.3068 47.8272C39.1191 48.298 37.8728 48.472 36.603 48.4513C36.218 48.445 35.9925 48.5532 35.7698 48.8842C32.332 53.993 28.8763 59.09 25.425 64.1889C25.352 64.2962 25.269 64.3963 25.1897 64.5C25.1599 64.4847 25.1311 64.4693 25.1031 64.454ZM32.1102 43.6013C31.5394 43.6013 30.9685 43.6194 30.3986 43.595C30.0496 43.5797 29.9963 43.6933 30.0784 44.0117C30.4725 45.5538 31.4302 46.6116 32.8939 47.1644C35.2584 48.0572 37.6519 47.9995 40.0317 47.1978C41.104 46.8362 41.8841 46.103 42.4152 45.12C43.2801 43.522 42.7417 41.3297 41.2528 40.2917C40.8704 40.0247 40.461 39.8056 40.0345 39.6171C38.863 39.1004 37.6068 38.8479 36.3974 38.4502C35.9276 38.296 35.4361 38.1607 35.0808 37.7955C34.408 37.1047 34.4504 36.6303 35.1863 36.0532C36.0935 35.3407 37.6726 35.8214 38.1019 36.8846C38.192 37.1092 38.2957 37.1741 38.5221 37.1723C39.6629 37.1615 40.8046 37.1543 41.9454 37.1732C42.3025 37.1795 42.2926 37.0451 42.2223 36.771C41.9084 35.5481 41.1996 34.6175 40.0741 34.0809C37.7637 32.9789 35.3856 32.9852 32.9877 33.8013C32.7848 33.8699 32.6792 34.0024 32.6215 34.2125C32.4475 34.8438 32.2752 35.4895 32.0408 36.0874C31.6259 37.1443 31.3292 38.2373 30.9207 39.2925C30.8486 39.4791 30.9099 39.6009 31.0154 39.7398C31.4347 40.2962 31.9984 40.6695 32.6089 40.9726C33.5134 41.4226 34.4901 41.666 35.4559 41.9402C36.2306 42.1602 37.0206 42.3352 37.6987 42.8114C38.1451 43.1243 38.3751 43.5301 38.2948 44.0694C38.2119 44.6276 37.9314 44.9974 37.3335 45.1543C35.9348 45.5222 34.8851 45.0839 34.2313 43.7745C34.1411 43.5932 34.0184 43.5995 33.866 43.6004C33.2817 43.6022 32.6964 43.6013 32.1102 43.6013ZM32.1111 33.5786C30.6294 33.5786 29.2181 33.5822 27.8076 33.575C27.602 33.5741 27.5605 33.6904 27.5209 33.8446C27.2756 34.8005 26.9942 35.7483 26.7868 36.7133C26.463 38.2184 26.0356 39.6965 25.7398 41.2106C25.5738 42.0601 25.3664 42.9187 25.1725 43.7709C25.1184 44.009 25.0788 44.1028 24.828 44.0946C24.5963 44.0874 24.4574 44.0793 24.4087 43.7799C24.2644 42.8871 24.0741 42.0024 23.8938 41.1159C23.7341 40.3296 23.4474 39.5684 23.2932 38.7893C22.9622 37.1119 22.477 35.4751 22.1055 33.8094C22.0712 33.6552 22.0054 33.5759 21.8358 33.5759C20.3803 33.5795 18.9248 33.5777 17.4404 33.5777C17.4665 33.6967 17.4783 33.7833 17.5053 33.8653C18.9329 38.2833 20.365 42.7004 21.7835 47.1211C21.8719 47.3953 22.009 47.4503 22.2669 47.4485C23.8586 47.4386 25.4512 47.4341 27.0438 47.4521C27.3694 47.4557 27.51 47.3601 27.6038 47.0445C28.0394 45.579 28.5525 44.1361 29.0242 42.6815C29.3227 41.7607 29.6275 40.8355 29.9684 39.9246C30.257 39.1563 30.4752 38.3627 30.7385 37.5844C31.1822 36.2741 31.6358 34.9656 32.1111 33.5786ZM32.9489 42.9295C33.4792 42.9295 33.9724 42.9376 34.4666 42.9259C34.6768 42.9205 34.7787 42.9638 34.8184 43.2027C35.0095 44.3571 36.2261 44.9604 37.2749 44.4364C37.6681 44.2398 37.7393 43.788 37.4291 43.4688C37.2352 43.2704 36.989 43.1595 36.7383 43.0621C35.8744 42.7248 34.9626 42.5435 34.0807 42.264C33.2176 41.9898 33.2176 41.9898 32.9489 42.9295Z" fill="#070605" fill-opacity="0.5"/>
<path d="M32.1099 43.6013C32.6952 43.6013 33.2814 43.6022 33.8666 43.6004C34.0181 43.5995 34.1408 43.5932 34.2319 43.7745C34.8857 45.0839 35.9363 45.5222 37.3341 45.1543C37.932 44.9974 38.2125 44.6276 38.2954 44.0694C38.3757 43.5301 38.1448 43.1243 37.6993 42.8114C37.0203 42.3352 36.2303 42.1593 35.4565 41.9402C34.4907 41.666 33.514 41.4217 32.6095 40.9726C31.999 40.6686 31.4353 40.2962 31.016 39.7398C30.9105 39.6 30.8492 39.4791 30.9213 39.2925C31.3298 38.2373 31.6274 37.1443 32.0414 36.0874C32.2758 35.4904 32.4481 34.8447 32.6221 34.2125C32.6798 34.0024 32.7863 33.8699 32.9883 33.8013C35.3871 32.9861 37.7643 32.9789 40.0747 34.0809C41.2002 34.6184 41.909 35.549 42.2228 36.771C42.2932 37.0451 42.3031 37.1795 41.946 37.1732C40.8052 37.1543 39.6635 37.1624 38.5227 37.1723C38.2954 37.1741 38.1926 37.1092 38.1025 36.8846C37.6732 35.8214 36.0941 35.3416 35.1869 36.0532C34.451 36.6303 34.4086 37.1047 35.0814 37.7955C35.4367 38.1598 35.9273 38.2951 36.398 38.4502C37.6074 38.8479 38.8636 39.1004 40.035 39.6171C40.4616 39.8056 40.871 40.0247 41.2534 40.2917C42.7423 41.3297 43.2807 43.522 42.4158 45.12C41.8847 46.1021 41.1046 46.8362 40.0323 47.1978C37.6525 47.9995 35.259 48.0581 32.8945 47.1644C31.4308 46.6116 30.4731 45.5547 30.079 44.0117C29.9978 43.6933 30.0511 43.5806 30.3992 43.595C30.9682 43.6194 31.54 43.6013 32.1099 43.6013Z" fill="#5AC8FA"/>
<path d="M32.1108 33.5786C31.6355 34.9647 31.181 36.2732 30.7382 37.5862C30.4758 38.3645 30.2567 39.1581 29.9681 39.9265C29.6263 40.8364 29.3215 41.7625 29.0239 42.6833C28.5531 44.1379 28.04 45.5799 27.6035 47.0463C27.5097 47.3619 27.369 47.4584 27.0435 47.4539C25.4518 47.4359 23.8592 47.4404 22.2666 47.4503C22.0087 47.4521 21.8716 47.3971 21.7832 47.1229C20.3646 42.7022 18.9326 38.2851 17.505 33.8672C17.4788 33.7851 17.4662 33.6985 17.4401 33.5795C18.9245 33.5795 20.38 33.5813 21.8355 33.5777C22.0051 33.5777 22.0709 33.657 22.1052 33.8112C22.4776 35.476 22.9619 37.1128 23.2928 38.7911C23.4462 39.5702 23.7329 40.3314 23.8935 41.1177C24.0738 42.0042 24.2641 42.8889 24.4084 43.7817C24.4571 44.082 24.596 44.0892 24.8277 44.0964C25.0784 44.1046 25.119 44.0108 25.1722 43.7727C25.3652 42.9205 25.5726 42.0619 25.7395 41.2124C26.0353 39.6983 26.4636 38.2193 26.7865 36.7151C26.9939 35.751 27.2753 34.8023 27.5206 33.8464C27.5602 33.6922 27.6017 33.5759 27.8073 33.5768C29.2187 33.5822 30.6291 33.5786 32.1108 33.5786Z" fill="#FF2D2D"/>
</g>
<defs>
<filter id="filter0_d_43_782" x="0.520142" y="0.5" width="58.9629" height="80" filterUnits="userSpaceOnUse" color-interpolation-filters="sRGB">
<feFlood flood-opacity="0" result="BackgroundImageFix"/>
<feColorMatrix in="SourceAlpha" type="matrix" values="0 0 0 0 0 0 0 0 0 0 0 0 0 0 0 0 0 0 127 0" result="hardAlpha"/>
<feOffset/>
<feGaussianBlur stdDeviation="8"/>
<feComposite in2="hardAlpha" operator="out"/>
<feColorMatrix type="matrix" values="0 0 0 0 1 0 0 0 0 1 0 0 0 0 1 0 0 0 0.5 0"/>
<feBlend mode="normal" in2="BackgroundImageFix" result="effect1_dropShadow_43_782"/>
<feBlend mode="normal" in="SourceGraphic" in2="effect1_dropShadow_43_782" result="shape"/>
</filter>
</defs>
</svg>
