<svg width="234" height="78" viewBox="0 0 234 78" fill="none" xmlns="http://www.w3.org/2000/svg">
<g clip-path="url(#clip0_43_428)">
<path fill-rule="evenodd" clip-rule="evenodd" d="M13.8193 75.4616C20.1355 80.8831 36.3012 76.8405 39.9708 70.6356C40.6666 69.4604 41.1168 68.0972 40.8849 66.3266C41.0076 65.7782 33.1635 40.6922 32.5224 34.4403C32.0449 41.7421 13.8329 43.2149 9.30379 41.7577C7.80318 49.2318 8.15787 71.0273 13.8193 75.4616Z" fill="url(#paint0_linear_43_428)"/>
<path fill-rule="evenodd" clip-rule="evenodd" d="M26.82 57.2543C25.565 50.7674 30.5852 47.0852 36.3694 46.8188C38.1565 56.2515 39.5479 60.9052 40.8985 66.3423C39.1933 59.6673 28.1569 64.1487 26.82 57.2543Z" fill="url(#paint1_linear_43_428)"/>
<path fill-rule="evenodd" clip-rule="evenodd" d="M14.4467 30.147C16.2202 38.4359 22.0453 57.5207 25.333 64.6971C22.2363 60.0277 15.5108 61.6573 12.9734 66.1386C11.5819 68.583 11.2682 73.0486 13.8192 75.4773C12.9598 74.9132 10.5588 72.7352 9.44015 67.5645C7.88497 60.3254 3.75146 47.1322 0.586536 39.6268C-2.59203 32.0587 7.91225 25.1173 14.4467 30.147Z" fill="url(#paint2_linear_43_428)"/>
<path fill-rule="evenodd" clip-rule="evenodd" d="M7.02564 28.7368C5.37496 29.1599 3.84707 30.006 2.63293 31.1499C4.47459 33.9076 13.6283 61.2186 13.3964 65.4648C14.4468 63.9763 15.9747 62.8795 17.6391 62.3154C15.088 57.364 7.65316 31.9646 7.02564 28.7368Z" fill="url(#paint3_radial_43_428)"/>
<path fill-rule="evenodd" clip-rule="evenodd" d="M15.3335 33.9076C15.1698 33.2495 15.0061 32.6071 14.8697 32.0116C10.9408 29.0659 5.52499 30.4918 2.67383 33.7822C1.13229 35.5685 0.327416 37.9345 0.900377 40.3789C1.10501 40.8803 1.30963 41.413 1.52791 41.9458C1.13229 39.6894 1.90988 37.4644 3.315 35.8035C6.11159 32.4974 11.4729 31.0402 15.3335 33.9076ZM23.355 59.824C21.2814 57.8184 18.0346 57.7401 15.279 59.0406C10.8726 61.1089 8.3898 66.2953 10.6134 71.2153C9.89041 66.9064 12.6597 62.8011 16.002 61.1872C18.8532 59.8084 22.1545 59.7457 24.2144 62.049C23.9416 61.3596 23.6551 60.6075 23.355 59.824Z" fill="url(#paint4_linear_43_428)"/>
<path fill-rule="evenodd" clip-rule="evenodd" d="M220.181 75.4616C213.865 80.8831 197.699 76.8405 194.029 70.6356C193.333 69.4604 192.883 68.0972 193.115 66.3266C192.992 65.7782 200.836 40.6922 201.478 34.4403C201.955 41.7421 220.167 43.2149 224.696 41.7577C226.197 49.2318 225.842 71.0273 220.181 75.4616Z" fill="url(#paint5_linear_43_428)"/>
<path fill-rule="evenodd" clip-rule="evenodd" d="M207.194 57.2543C208.449 50.7674 203.428 47.0852 197.644 46.8188C195.857 56.2515 194.466 60.9052 193.115 66.3423C194.82 59.6673 205.857 64.1487 207.194 57.2543Z" fill="url(#paint6_linear_43_428)"/>
<path fill-rule="evenodd" clip-rule="evenodd" d="M219.553 30.147C217.78 38.4359 211.955 57.5207 208.667 64.6971C211.764 60.0277 218.489 61.6573 221.027 66.1386C222.418 68.583 222.732 73.0486 220.181 75.4773C221.04 74.9132 223.441 72.7352 224.56 67.5645C226.115 60.3254 230.248 47.1479 233.413 39.6268C236.606 32.0587 226.088 25.1173 219.553 30.147Z" fill="url(#paint7_linear_43_428)"/>
<path fill-rule="evenodd" clip-rule="evenodd" d="M226.988 28.7368C228.639 29.1599 230.167 30.006 231.381 31.1499C229.539 33.9076 220.385 61.2186 220.617 65.4648C219.567 63.9763 218.039 62.8795 216.375 62.3154C218.926 57.364 226.347 31.9646 226.988 28.7368Z" fill="url(#paint8_radial_43_428)"/>
<path fill-rule="evenodd" clip-rule="evenodd" d="M231.326 33.7822C228.475 30.4918 223.059 29.0502 219.13 32.0117C218.994 32.6071 218.83 33.2495 218.666 33.9076C222.541 31.0402 227.902 32.4974 230.685 35.8192C232.09 37.4801 232.868 39.7051 232.472 41.9614C232.69 41.413 232.895 40.8959 233.1 40.3945C233.686 37.9502 232.881 35.5685 231.326 33.7822ZM218.721 59.0406C215.965 57.7401 212.732 57.8184 210.645 59.824C210.345 60.6075 210.058 61.3596 209.786 62.049C211.846 59.7457 215.147 59.8083 217.998 61.1872C221.34 62.8011 224.11 66.9064 223.387 71.2153C225.61 66.2953 223.127 61.1089 218.721 59.0406Z" fill="url(#paint9_linear_43_428)"/>
<path fill-rule="evenodd" clip-rule="evenodd" d="M16.384 13.7103C15.1698 15.2302 15.1153 17.6746 16.2475 20.1033C21.486 31.3849 25.5923 49.4669 26.8064 57.2543C26.3562 54.3869 28.3479 52.0052 32.345 50.172C44.0634 44.7975 63.1485 42.1025 116.993 42.1025V0C52.9853 0 23.7233 4.57533 16.384 13.7103Z" fill="url(#paint10_radial_43_428)"/>
<path fill-rule="evenodd" clip-rule="evenodd" d="M217.616 13.7103C218.83 15.2302 218.885 17.6746 217.752 20.1033C212.514 31.3849 208.408 49.4669 207.194 57.2543C207.644 54.3869 205.652 52.0052 201.655 50.172C189.937 44.7975 170.852 42.1025 117.007 42.1025V0C181.015 0 210.29 4.57533 217.616 13.7103Z" fill="url(#paint11_radial_43_428)"/>
<path fill-rule="evenodd" clip-rule="evenodd" d="M117.007 37.1511C61.9753 37.1511 41.6898 40.0655 30.4761 45.8787C27.7477 47.2105 26.0697 48.8714 25.6059 50.7987C25.8106 51.7702 25.9879 52.679 26.1516 53.5408C26.4517 51.3628 28.2797 49.4982 31.4037 48.0253C42.863 42.4315 62.5483 39.6268 116.993 39.6268H117.089V37.1511H117.007ZM18.2666 18.0036C26.1107 9.30735 54.1858 4.95139 117.007 4.95139H117.102V2.47569H117.007C53.5855 2.47569 24.9238 6.94134 17.3253 15.857C16.3703 16.9068 16.002 18.3953 16.2203 20.0249C16.2339 20.0562 16.2476 20.0719 16.2476 20.1033C16.4522 20.542 16.6568 21.0121 16.8614 21.4665C16.8887 20.1189 17.3662 18.9124 18.2666 18.0036Z" fill="url(#paint12_linear_43_428)"/>
<path fill-rule="evenodd" clip-rule="evenodd" d="M117.198 37.1511C172.229 37.1511 192.515 40.0655 203.729 45.8787C206.457 47.2105 207.971 48.7304 208.435 50.642C208.23 51.6135 208.053 52.5066 207.889 53.3684C207.589 51.1904 205.925 49.4982 202.787 48.0096C191.328 42.4158 171.643 39.6111 117.198 39.6111H117.102V37.1354L117.198 37.1511ZM215.938 18.0036C208.094 9.30735 180.019 4.95139 117.198 4.95139H117.102V2.47569H117.198C180.619 2.47569 209.281 6.94134 216.879 15.857C217.834 16.9068 218.257 17.8156 218.039 19.4452C218.025 19.4765 217.521 20.6203 217.316 21.0747C217.289 19.7429 216.838 18.9124 215.938 18.0036Z" fill="url(#paint13_linear_43_428)"/>
<path opacity="0.3" fill-rule="evenodd" clip-rule="evenodd" d="M217.616 13.7103C210.29 4.57533 181.015 0 117.007 0C52.9852 0 23.7233 4.57533 16.384 13.7103C15.1698 15.2302 15.1153 17.6589 16.2475 20.1033C21.486 31.3849 25.5923 49.4669 26.8064 57.2543C26.3562 54.3869 28.3479 52.0052 32.345 50.172C44.0634 44.7975 63.1485 42.1025 116.993 42.1025C170.838 42.1025 189.923 44.7975 201.641 50.172C205.638 52.0052 207.63 54.3869 207.18 57.2543C208.408 49.4669 212.5 31.3692 217.739 20.1033C218.885 17.6746 218.83 15.2302 217.616 13.7103Z" fill="url(#paint14_radial_43_428)"/>
<path d="M72.5205 31.0872C72.3432 31.1655 72.0567 31.2282 71.6611 31.3222C71.2791 31.4006 70.8971 31.4632 70.5151 31.4789C69.7376 31.5259 69.1373 31.4162 68.7417 31.1342C68.3324 30.8522 68.1142 30.2254 68.0596 29.2539L67.8686 25.3053C67.4048 24.6159 66.9137 23.8481 66.3816 23.002C65.8496 22.1559 65.3176 21.2941 64.7992 20.401C64.2808 19.5078 63.7897 18.646 63.3395 17.7842C62.8893 16.9225 62.521 16.1233 62.2345 15.4026C62.4391 15.0422 62.7256 14.6975 63.0939 14.3841C63.4623 14.0707 63.9261 13.8984 64.4854 13.8513C65.1539 13.8043 65.6995 13.9297 66.1224 14.2117C66.559 14.4938 66.9819 15.0579 67.3911 15.8883L69.7376 20.636L69.8876 20.6203C70.0922 19.9936 70.2832 19.4295 70.4333 18.9281C70.5834 18.4267 70.7334 17.9096 70.8835 17.4082C71.0335 16.9068 71.1836 16.374 71.3473 15.8256C71.511 15.2772 71.6884 14.6505 71.893 13.9297C72.1931 13.7417 72.5205 13.5693 72.8888 13.4596C73.2572 13.3343 73.6119 13.2716 73.9529 13.2403C74.5532 13.2089 75.0579 13.3499 75.4945 13.679C75.931 14.008 76.1629 14.5408 76.2038 15.2615C76.2175 15.4966 76.1902 15.7786 76.122 16.1233C76.0538 16.4681 75.8764 16.9695 75.6036 17.6746C75.3307 18.364 74.9351 19.3041 74.4031 20.495C73.8711 21.6858 73.148 23.237 72.2477 25.1487L72.5205 31.0872ZM77.6908 21.9365C77.6635 20.4166 77.8409 19.0534 78.2228 17.8783C78.6185 16.6874 79.1641 15.7003 79.8599 14.8855C80.5693 14.0707 81.4014 13.444 82.37 13.0052C83.3386 12.5665 84.389 12.3315 85.5349 12.3001C86.6808 12.2688 87.7313 12.4411 88.7271 12.8172C89.7093 13.1932 90.5824 13.773 91.3327 14.5408C92.083 15.3086 92.6833 16.28 93.1198 17.4395C93.5564 18.599 93.8019 19.9466 93.8292 21.4665C93.8565 22.9863 93.6928 24.3495 93.3108 25.5404C92.9288 26.7312 92.3832 27.734 91.6874 28.5488C90.978 29.3636 90.1459 29.9904 89.1637 30.4291C88.1814 30.8678 87.1174 31.1029 85.9715 31.1342C84.8119 31.1655 83.7342 30.9932 82.752 30.6014C81.7561 30.2097 80.8967 29.63 80.16 28.8465C79.4233 28.0631 78.8504 27.0916 78.4138 25.9321C77.9636 24.7726 77.7317 23.4407 77.6908 21.9365ZM82.2881 21.7955C82.3291 23.5661 82.6701 24.898 83.3249 25.7441C83.9797 26.6059 84.8255 27.0133 85.876 26.9819C86.94 26.9506 87.7858 26.4805 88.3997 25.5874C89.0136 24.6943 89.3001 23.3467 89.2592 21.5761C89.2182 19.8212 88.8772 18.505 88.236 17.6432C87.5948 16.7814 86.7354 16.374 85.6713 16.4054C84.6209 16.4367 83.7751 16.8911 83.1612 17.7842C82.5337 18.693 82.2472 20.0249 82.2881 21.7955ZM110.227 23.6601C110.24 24.7099 110.077 25.6814 109.777 26.5432C109.463 27.4207 109.013 28.1571 108.426 28.7838C107.839 29.4106 107.116 29.8807 106.271 30.2254C105.425 30.5701 104.47 30.7425 103.392 30.7425C102.314 30.7581 101.36 30.6014 100.514 30.2724C99.6679 29.9433 98.9313 29.4733 98.331 28.8779C97.7308 28.2668 97.267 27.5303 96.9532 26.6685C96.6394 25.8068 96.4757 24.8353 96.4621 23.7855L96.3939 12.5978C96.5849 12.5508 96.8714 12.5038 97.2806 12.4255C97.6899 12.3471 98.0855 12.3158 98.4538 12.3158C98.8494 12.3158 99.1905 12.3471 99.4906 12.4098C99.7907 12.4725 100.036 12.5978 100.241 12.7702C100.446 12.9425 100.596 13.1932 100.705 13.491C100.814 13.8043 100.868 14.2117 100.868 14.7131L100.923 23.6444C100.923 24.5846 101.155 25.3053 101.619 25.8381C102.069 26.3552 102.656 26.6215 103.365 26.6215C104.102 26.6215 104.675 26.3395 105.125 25.8224C105.561 25.2897 105.78 24.5532 105.78 23.6131L105.711 12.5195C105.902 12.4725 106.189 12.4255 106.598 12.3471C107.007 12.2688 107.403 12.2374 107.771 12.2374C108.167 12.2374 108.508 12.2688 108.808 12.3315C109.108 12.3941 109.354 12.5195 109.558 12.6918C109.763 12.8642 109.913 13.1149 110.022 13.4126C110.131 13.726 110.186 14.1334 110.186 14.6348L110.227 23.6601ZM125.82 16.8441C126.011 16.7501 126.297 16.6404 126.706 16.5151C127.102 16.3897 127.511 16.327 127.92 16.327C128.63 16.327 129.23 16.4524 129.707 16.7031C130.185 16.9538 130.471 17.3142 130.567 17.7842C130.744 18.5834 130.922 19.3355 131.072 20.0249C131.235 20.7143 131.385 21.3881 131.535 22.0149C131.686 22.6573 131.836 23.284 131.972 23.9108C132.108 24.5376 132.245 25.1957 132.381 25.8694H132.504C132.668 24.6786 132.804 23.5504 132.927 22.4536C133.05 21.3724 133.173 20.3069 133.282 19.2571C133.391 18.2073 133.5 17.1732 133.609 16.1547C133.718 15.1362 133.827 14.0864 133.936 13.0366C134.564 12.6292 135.246 12.4255 135.955 12.4411C136.583 12.4411 137.129 12.6135 137.579 12.9269C138.043 13.2403 138.261 13.773 138.261 14.5094C138.261 14.9325 138.22 15.5436 138.138 16.3427C138.056 17.1262 137.947 18.0193 137.824 18.9908C137.688 19.9622 137.538 20.9964 137.361 22.0619C137.183 23.1274 137.006 24.1615 136.815 25.133C136.624 26.1045 136.433 26.9976 136.228 27.781C136.024 28.5645 135.846 29.1756 135.669 29.6143C135.41 29.8807 135.001 30.1 134.414 30.2724C133.841 30.4448 133.241 30.5231 132.627 30.5231C131.822 30.5231 131.154 30.3978 130.608 30.147C130.062 29.8963 129.721 29.5516 129.612 29.0972C129.394 28.3138 129.162 27.3893 128.916 26.3082C128.671 25.227 128.398 24.0518 128.125 22.7513C127.879 24.0205 127.62 25.2583 127.361 26.4648C127.102 27.6714 126.87 28.6898 126.652 29.536C126.392 29.8023 126.011 30.0217 125.506 30.1941C125.001 30.3664 124.428 30.4448 123.828 30.4448C123.064 30.4448 122.368 30.3194 121.754 30.0687C121.14 29.818 120.731 29.4733 120.554 29.0189C120.404 28.6585 120.24 28.1414 120.063 27.452C119.885 26.7626 119.708 25.9634 119.531 25.0703C119.353 24.1772 119.162 23.2214 118.971 22.1872C118.78 21.1531 118.603 20.1189 118.453 19.0848C118.303 18.0506 118.153 17.0321 118.016 16.045C117.88 15.0579 117.784 14.1491 117.73 13.3343C117.975 13.0836 118.303 12.8485 118.726 12.6448C119.149 12.4255 119.612 12.3315 120.104 12.3315C120.745 12.3315 121.277 12.5038 121.7 12.8329C122.109 13.1619 122.368 13.6947 122.464 14.4624C122.723 16.4524 122.941 18.1133 123.118 19.4452C123.296 20.777 123.432 21.8582 123.541 22.72C123.65 23.5661 123.719 24.2242 123.773 24.6943C123.828 25.1643 123.869 25.5404 123.923 25.8067H124.046C124.21 25.0233 124.346 24.3025 124.496 23.6444C124.633 22.9863 124.783 22.3126 124.933 21.6388C125.083 20.965 125.233 20.2443 125.397 19.4765C125.478 18.7087 125.656 17.8313 125.82 16.8441ZM145.082 30.4134C144.891 30.4604 144.604 30.5231 144.195 30.5701C143.8 30.6171 143.404 30.6328 143.008 30.6328C142.613 30.6171 142.272 30.5858 141.972 30.5074C141.671 30.4291 141.426 30.3037 141.221 30.1314C141.017 29.9433 140.867 29.7083 140.771 29.3949C140.676 29.0816 140.635 28.6742 140.635 28.1571L140.894 12.6918C141.085 12.6605 141.385 12.6135 141.794 12.5508C142.203 12.4881 142.599 12.4725 142.967 12.4725C143.363 12.4881 143.704 12.5195 144.004 12.5978C144.304 12.6762 144.55 12.8015 144.755 12.9739C144.959 13.1619 145.109 13.3969 145.205 13.7103C145.3 14.0237 145.341 14.4311 145.341 14.9482L145.082 30.4134ZM162.407 30.5858C162.162 30.8521 161.807 31.0402 161.357 31.1655C160.907 31.2909 160.361 31.3379 159.733 31.3065C159.106 31.2752 158.519 31.1499 157.96 30.8992C157.401 30.6641 156.964 30.1157 156.637 29.2853L154.318 23.2527C154.086 22.6416 153.867 22.0619 153.69 21.5135C153.499 20.965 153.308 20.3383 153.09 19.6332L152.94 19.6489C152.967 20.6987 152.967 21.7798 152.94 22.8767C152.912 23.9735 152.885 25.039 152.844 26.1045L152.694 30.6485C152.503 30.6955 152.217 30.7425 151.835 30.7895C151.453 30.8365 151.071 30.8365 150.702 30.8208C150.334 30.8051 149.993 30.7581 149.707 30.6955C149.42 30.6171 149.188 30.4918 149.011 30.3194C148.833 30.1314 148.697 29.8963 148.602 29.583C148.506 29.2696 148.479 28.8779 148.492 28.3921L148.984 13.7573C149.229 13.3813 149.611 13.0992 150.116 12.9269C150.621 12.7545 151.139 12.6762 151.712 12.7075C152.339 12.7388 152.94 12.8799 153.499 13.1306C154.058 13.3813 154.495 13.914 154.809 14.7288L157.155 20.7613C157.387 21.3724 157.605 21.9522 157.783 22.5006C157.974 23.049 158.165 23.6758 158.383 24.3965L158.506 24.3652C158.478 23.3154 158.465 22.2499 158.492 21.2001C158.519 20.1503 158.533 19.0848 158.574 18.035L158.738 13.2873C158.928 13.2403 159.215 13.1932 159.597 13.1462C159.979 13.0992 160.361 13.0992 160.729 13.1149C161.48 13.1462 162.039 13.3186 162.421 13.6476C162.803 13.961 162.98 14.6035 162.939 15.5593L162.407 30.5858ZM171.056 14.8071C171.029 15.2615 170.988 15.904 170.92 16.7501C170.852 17.5962 170.77 18.505 170.661 19.4922C170.551 20.4793 170.429 21.4508 170.292 22.4223C170.156 23.3937 169.992 24.2399 169.842 24.9606C169.774 25.0076 169.665 25.0703 169.528 25.1173C169.392 25.1643 169.242 25.1957 169.092 25.227C168.942 25.2583 168.778 25.274 168.628 25.274C168.478 25.274 168.341 25.274 168.219 25.274C167.728 25.2427 167.318 25.1173 167.005 24.9136C166.677 24.7099 166.5 24.3495 166.445 23.8481C166.391 23.3937 166.35 22.7043 166.35 21.7798C166.35 20.8554 166.35 19.8682 166.363 18.7871C166.377 17.7059 166.404 16.6404 166.432 15.5906C166.472 14.5408 166.513 13.632 166.554 12.8955C166.909 12.7075 167.305 12.5665 167.741 12.4725C168.178 12.3785 168.614 12.3471 169.037 12.3785C169.733 12.4255 170.265 12.6605 170.62 13.0522C170.947 13.4753 171.111 14.055 171.056 14.8071ZM165.518 29.1756C165.558 28.3765 165.818 27.734 166.281 27.2483C166.745 26.7626 167.359 26.5589 168.123 26.6059C168.887 26.6685 169.474 26.9663 169.869 27.5147C170.265 28.0631 170.456 28.7368 170.401 29.536C170.36 30.3351 170.101 30.9775 169.637 31.4632C169.174 31.949 168.56 32.1527 167.796 32.1057C167.032 32.043 166.445 31.7453 166.05 31.1969C165.654 30.6485 165.477 29.9747 165.518 29.1756Z" fill="url(#paint15_linear_43_428)"/>
</g>
<defs>
<linearGradient id="paint0_linear_43_428" x1="8.77558" y1="64.5595" x2="39.3453" y2="53.8063" gradientUnits="userSpaceOnUse">
<stop stop-color="#064203"/>
<stop offset="0.0333" stop-color="#0D4E07"/>
<stop offset="0.2162" stop-color="#318C1B"/>
<stop offset="0.3502" stop-color="#47B328"/>
<stop offset="0.42" stop-color="#50C22D"/>
<stop offset="0.4296" stop-color="#4FC02C"/>
<stop offset="0.5968" stop-color="#3A9B19"/>
<stop offset="0.7528" stop-color="#2B810B"/>
<stop offset="0.8919" stop-color="#227103"/>
<stop offset="1" stop-color="#1F6B00"/>
</linearGradient>
<linearGradient id="paint1_linear_43_428" x1="26.6196" y1="56.5746" x2="40.8934" y2="56.5746" gradientUnits="userSpaceOnUse">
<stop stop-color="#006633"/>
<stop offset="1" stop-color="#009933"/>
</linearGradient>
<linearGradient id="paint2_linear_43_428" x1="4.73109" y1="54.6558" x2="21.0476" y2="48.9164" gradientUnits="userSpaceOnUse">
<stop stop-color="#0D8C07"/>
<stop offset="0.1636" stop-color="#219C1B"/>
<stop offset="0.5034" stop-color="#5CDE33"/>
<stop offset="0.5087" stop-color="#5BDC32"/>
<stop offset="0.5856" stop-color="#49BF20"/>
<stop offset="0.6678" stop-color="#3BA912"/>
<stop offset="0.7573" stop-color="#319908"/>
<stop offset="0.8591" stop-color="#2B9002"/>
<stop offset="1" stop-color="#298D00"/>
</linearGradient>
<radialGradient id="paint3_radial_43_428" cx="0" cy="0" r="1" gradientUnits="userSpaceOnUse" gradientTransform="translate(5.77549 24.1148) scale(42.0604 48.31)">
<stop offset="0.00371747" stop-color="#3AAA35"/>
<stop offset="1" stop-color="#0D010D"/>
</radialGradient>
<linearGradient id="paint4_linear_43_428" x1="4.2241" y1="53.1594" x2="20.3171" y2="47.4986" gradientUnits="userSpaceOnUse">
<stop stop-color="#D7F0B9"/>
<stop offset="0.3941" stop-color="white"/>
<stop offset="1" stop-color="#E5FF9C"/>
</linearGradient>
<linearGradient id="paint5_linear_43_428" x1="195.698" y1="50.855" x2="226.269" y2="61.6084" gradientUnits="userSpaceOnUse">
<stop stop-color="#1F6B00"/>
<stop offset="0.1081" stop-color="#227103"/>
<stop offset="0.2472" stop-color="#2B810B"/>
<stop offset="0.4032" stop-color="#3A9B19"/>
<stop offset="0.5704" stop-color="#4FC02C"/>
<stop offset="0.58" stop-color="#50C22D"/>
<stop offset="0.6498" stop-color="#47B328"/>
<stop offset="0.7838" stop-color="#318C1B"/>
<stop offset="0.9667" stop-color="#0D4E07"/>
<stop offset="1" stop-color="#064203"/>
</linearGradient>
<linearGradient id="paint6_linear_43_428" x1="193.112" y1="56.5746" x2="207.386" y2="56.5746" gradientUnits="userSpaceOnUse">
<stop stop-color="#009933"/>
<stop offset="1" stop-color="#006633"/>
</linearGradient>
<linearGradient id="paint7_linear_43_428" x1="213.512" y1="47.3409" x2="229.829" y2="53.0805" gradientUnits="userSpaceOnUse">
<stop stop-color="#0D8C07"/>
<stop offset="0.1636" stop-color="#219C1B"/>
<stop offset="0.5034" stop-color="#5CDE33"/>
<stop offset="0.5087" stop-color="#5BDC32"/>
<stop offset="0.5856" stop-color="#49BF20"/>
<stop offset="0.6678" stop-color="#3BA912"/>
<stop offset="0.7573" stop-color="#319908"/>
<stop offset="0.8591" stop-color="#2B9002"/>
<stop offset="1" stop-color="#298D00"/>
</linearGradient>
<radialGradient id="paint8_radial_43_428" cx="0" cy="0" r="1" gradientUnits="userSpaceOnUse" gradientTransform="translate(234.033 22.7819) scale(41.7661 47.972)">
<stop offset="0.00371747" stop-color="#3AAA35"/>
<stop offset="1" stop-color="#0D010D"/>
</radialGradient>
<linearGradient id="paint9_linear_43_428" x1="214.235" y1="45.9449" x2="230.328" y2="51.6059" gradientUnits="userSpaceOnUse">
<stop stop-color="#E5FF9C"/>
<stop offset="0.6059" stop-color="white"/>
<stop offset="1" stop-color="#D7F0B9"/>
</linearGradient>
<radialGradient id="paint10_radial_43_428" cx="0" cy="0" r="1" gradientUnits="userSpaceOnUse" gradientTransform="translate(-25.7442 55.1313) scale(145.748 167.404)">
<stop offset="0.3285" stop-color="#3AAA35"/>
<stop offset="0.3696" stop-color="#5CDE33"/>
<stop offset="0.3705" stop-color="#5BDC32"/>
<stop offset="0.3841" stop-color="#49BF20"/>
<stop offset="0.3986" stop-color="#3BA912"/>
<stop offset="0.4144" stop-color="#319908"/>
<stop offset="0.4324" stop-color="#2B9002"/>
<stop offset="0.4572" stop-color="#298D00"/>
<stop offset="0.6259" stop-color="#379F04"/>
<stop offset="0.8319" stop-color="#43AE07"/>
<stop offset="1" stop-color="#47B308"/>
</radialGradient>
<radialGradient id="paint11_radial_43_428" cx="0" cy="0" r="1" gradientUnits="userSpaceOnUse" gradientTransform="translate(259.75 55.1313) rotate(180) scale(145.748 167.404)">
<stop offset="0.3285" stop-color="#3AAA35"/>
<stop offset="0.3696" stop-color="#5CDE33"/>
<stop offset="0.3705" stop-color="#5BDC32"/>
<stop offset="0.3841" stop-color="#49BF20"/>
<stop offset="0.3986" stop-color="#3BA912"/>
<stop offset="0.4144" stop-color="#319908"/>
<stop offset="0.4324" stop-color="#2B9002"/>
<stop offset="0.4572" stop-color="#298D00"/>
<stop offset="0.6259" stop-color="#379F04"/>
<stop offset="0.8319" stop-color="#43AE07"/>
<stop offset="1" stop-color="#47B308"/>
</radialGradient>
<linearGradient id="paint12_linear_43_428" x1="16.1583" y1="28.0137" x2="117.098" y2="28.0137" gradientUnits="userSpaceOnUse">
<stop stop-color="#D7F0B9"/>
<stop offset="0.0669" stop-color="white"/>
<stop offset="0.1766" stop-color="#E5FF9C"/>
<stop offset="1" stop-color="#F8FFE6"/>
</linearGradient>
<linearGradient id="paint13_linear_43_428" x1="117.098" y1="27.93" x2="218.085" y2="27.93" gradientUnits="userSpaceOnUse">
<stop stop-color="#F8FFE6"/>
<stop offset="0.8234" stop-color="#E5FF9C"/>
<stop offset="0.9331" stop-color="white"/>
<stop offset="1" stop-color="#D7F0B9"/>
</linearGradient>
<radialGradient id="paint14_radial_43_428" cx="0" cy="0" r="1" gradientUnits="userSpaceOnUse" gradientTransform="translate(117.003 82.9691) scale(126.72 145.549)">
<stop stop-color="#7AD119"/>
<stop offset="0.2796" stop-color="#528515"/>
<stop offset="0.5644" stop-color="#2D3E11"/>
<stop offset="0.7699" stop-color="#16120E"/>
<stop offset="0.8736" stop-color="#0D010D"/>
</radialGradient>
<linearGradient id="paint15_linear_43_428" x1="116.647" y1="32.1232" x2="116.647" y2="12.2244" gradientUnits="userSpaceOnUse">
<stop stop-color="#E5FF9C"/>
<stop offset="1" stop-color="#F8FFE6"/>
</linearGradient>
<clipPath id="clip0_43_428">
<rect width="234" height="78" fill="white"/>
</clipPath>
</defs>
</svg>
