<svg width="84" height="59" viewBox="0 0 84 59" fill="none" xmlns="http://www.w3.org/2000/svg">
<rect x="15.25" y="2.00006" width="66" height="46" rx="4" stroke="white" stroke-width="4"/>
<rect x="0.75" y="9.00006" width="70" height="50" rx="6" fill="white"/>
<path d="M35.3558 49.9179C34.7623 49.9179 34.2609 49.7086 33.8516 49.29C33.4423 48.8714 33.2376 48.3482 33.2376 47.7203L33.2376 45.3972L34.1586 46.2449C32.7874 46.1821 31.6004 46.0042 30.5976 45.7112C29.5947 45.4182 28.7761 45.1252 28.1417 44.8322C27.6096 44.581 27.2309 44.2252 27.0058 43.7648C26.8012 43.3043 26.7193 42.8334 26.7602 42.3521C26.8216 41.8707 26.9956 41.4312 27.2821 41.0336C27.5686 40.6359 27.937 40.3743 28.3873 40.2487C28.858 40.1022 29.4003 40.165 30.0143 40.4371C30.4236 40.6673 31.0376 40.908 31.8562 41.1591C32.6953 41.3894 33.7288 41.5045 34.9568 41.5045C35.8163 41.5045 36.4917 41.4207 36.9829 41.2533C37.4945 41.0859 37.8527 40.8661 38.0573 40.5941C38.2824 40.3011 38.395 39.9871 38.395 39.6523C38.395 39.3383 38.3131 39.0767 38.1494 38.8674C38.0062 38.6372 37.7606 38.4384 37.4126 38.271C37.0647 38.0826 36.5838 37.9152 35.9698 37.7687L32.5009 37.0152C30.5976 36.5757 29.1752 35.8432 28.2338 34.8177C27.3128 33.7712 26.8523 32.4213 26.8523 30.768C26.8523 29.5122 27.1491 28.3925 27.7426 27.4089C28.3566 26.4043 29.2059 25.5881 30.2906 24.9602C31.3957 24.3323 32.6851 23.9347 34.1586 23.7673L33.2376 24.3009L33.2376 22.1976C33.2376 21.5697 33.4423 21.0465 33.8516 20.6279C34.2609 20.2093 34.7623 20.0001 35.3558 20.0001C35.9698 20.0001 36.4815 20.2093 36.8908 20.6279C37.3001 21.0465 37.5047 21.5697 37.5047 22.1976L37.5047 24.3009L36.5838 23.7045C37.3615 23.7254 38.2006 23.8614 39.1011 24.1126C40.0016 24.3428 40.7895 24.6672 41.4649 25.0858C41.9356 25.3369 42.263 25.6822 42.4472 26.1218C42.6519 26.5613 42.7235 27.0112 42.6621 27.4717C42.6212 27.9112 42.4574 28.3088 42.1709 28.6646C41.9049 29.0204 41.5365 29.2611 41.0658 29.3867C40.6155 29.4913 40.0732 29.4076 39.4388 29.1355C38.968 28.9262 38.4359 28.7588 37.8424 28.6332C37.2694 28.4867 36.5326 28.4135 35.6321 28.4135C34.5474 28.4135 33.7083 28.6123 33.1148 29.0099C32.5418 29.4076 32.2553 29.9203 32.2553 30.5482C32.2553 30.9668 32.419 31.3226 32.7465 31.6156C33.0944 31.8877 33.7186 32.1283 34.6191 32.3376L38.1187 33.1225C40.063 33.562 41.4956 34.2945 42.4165 35.32C43.3579 36.3246 43.8287 37.6326 43.8287 39.2442C43.8287 40.4999 43.5319 41.6091 42.9384 42.5718C42.3449 43.5346 41.516 44.3194 40.4518 44.9263C39.4081 45.5333 38.1903 45.9309 36.7987 46.1193L37.5047 45.3658L37.5047 47.7203C37.5047 48.3482 37.3001 48.8714 36.8908 49.29C36.5019 49.7086 35.9903 49.9179 35.3558 49.9179Z" fill="#3C3C3C"/>
</svg>
