<svg width="66" height="51" viewBox="0 0 66 51" fill="none" xmlns="http://www.w3.org/2000/svg">
<path d="M4.01904 36.1726C2.68838 27.5232 1.35772 18.874 0.0270666 10.2246C-0.268027 8.30731 1.91357 6.99962 3.46538 8.16359C7.61113 11.2729 11.7567 14.382 15.9024 17.4913C17.2674 18.5151 19.2121 18.1819 20.1584 16.7622L30.5125 1.23096C31.6067 -0.41032 34.0182 -0.41032 35.1124 1.23096L45.4665 16.7622C46.4128 18.1819 48.3575 18.5148 49.7225 17.4913C53.8682 14.382 58.0138 11.2729 62.1595 8.16359C63.7113 6.99962 65.8929 8.30731 65.598 10.2246C64.2674 18.874 62.9367 27.5232 61.6061 36.1726H4.01904Z" fill="#009933"/>
<path d="M32.0518 28.1484C31.2731 28.1484 30.4998 28.0471 29.7318 27.8444C28.9638 27.6311 28.3131 27.3324 27.7798 26.9484L28.7878 24.9644C29.2145 25.2737 29.7105 25.5191 30.2758 25.7004C30.8411 25.8817 31.4118 25.9724 31.9878 25.9724C32.6385 25.9724 33.1505 25.8444 33.5238 25.5884C33.8971 25.3324 34.0838 24.9804 34.0838 24.5324C34.0838 24.1057 33.9185 23.7697 33.5878 23.5244C33.2571 23.2791 32.7238 23.1564 31.9878 23.1564H30.8038V21.4444L33.9238 17.9084L34.2118 18.8364H28.3398V16.7564H36.1798V18.4364L33.0758 21.9724L31.7638 21.2204H32.5158C33.8918 21.2204 34.9318 21.5297 35.6358 22.1484C36.3398 22.7671 36.6918 23.5617 36.6918 24.5324C36.6918 25.1617 36.5265 25.7537 36.1958 26.3084C35.8651 26.8524 35.3585 27.2951 34.6758 27.6364C33.9931 27.9777 33.1185 28.1484 32.0518 28.1484Z" fill="white"/>
<path d="M58.6035 50.5688H7.02139C5.36326 50.5688 4.01904 49.2246 4.01904 47.5665V40.9711H61.6061V47.5665C61.6059 49.2246 60.2617 50.5688 58.6035 50.5688V50.5688Z" fill="#009933"/>
</svg>
