<svg width="66" height="51" viewBox="0 0 66 51" fill="none" xmlns="http://www.w3.org/2000/svg">
<path d="M4.01904 36.1726C2.68838 27.5232 1.35772 18.874 0.0270666 10.2246C-0.268027 8.30731 1.91357 6.99962 3.46538 8.16359C7.61113 11.2729 11.7567 14.382 15.9024 17.4913C17.2674 18.5151 19.2121 18.1819 20.1584 16.7622L30.5125 1.23096C31.6067 -0.41032 34.0182 -0.41032 35.1124 1.23096L45.4665 16.7622C46.4128 18.1819 48.3575 18.5148 49.7225 17.4913C53.8682 14.382 58.0138 11.2729 62.1595 8.16359C63.7113 6.99962 65.8929 8.30731 65.598 10.2246C64.2674 18.874 62.9367 27.5232 61.6061 36.1726H4.01904Z" fill="#009933"/>
<path d="M28.3394 27.9564V26.2764L32.6594 22.1964C33.0008 21.8871 33.2514 21.6097 33.4114 21.3644C33.5714 21.1191 33.6781 20.8951 33.7314 20.6924C33.7954 20.4897 33.8274 20.3031 33.8274 20.1324C33.8274 19.6844 33.6728 19.3431 33.3634 19.1084C33.0648 18.8631 32.6221 18.7404 32.0354 18.7404C31.5661 18.7404 31.1288 18.8311 30.7234 19.0124C30.3288 19.1937 29.9928 19.4764 29.7154 19.8604L27.8274 18.6444C28.2541 18.0044 28.8514 17.4977 29.6194 17.1244C30.3874 16.7511 31.2728 16.5644 32.2754 16.5644C33.1074 16.5644 33.8328 16.7031 34.4514 16.9804C35.0808 17.2471 35.5661 17.6257 35.9074 18.1164C36.2594 18.6071 36.4354 19.1937 36.4354 19.8764C36.4354 20.2391 36.3874 20.6017 36.2914 20.9644C36.2061 21.3164 36.0248 21.6897 35.7474 22.0844C35.4808 22.4791 35.0861 22.9217 34.5634 23.4124L30.9794 26.7884L30.4834 25.8444H36.8034V27.9564H28.3394Z" fill="white"/>
<path d="M58.6035 50.5688H7.02139C5.36326 50.5688 4.01904 49.2246 4.01904 47.5665V40.9711H61.6061V47.5665C61.6059 49.2246 60.2617 50.5688 58.6035 50.5688V50.5688Z" fill="#009933"/>
</svg>
