<svg width="66" height="52" viewBox="0 0 66 52" fill="none" xmlns="http://www.w3.org/2000/svg">
<path d="M4.20658 36.8881C2.87593 28.2387 1.54527 19.5895 0.214612 10.9401C-0.0804813 9.02281 2.10111 7.71512 3.65292 8.87909C7.79867 11.9884 11.9442 15.0975 16.09 18.2068C17.455 19.2306 19.3996 18.8974 20.346 17.4777L30.7 1.94646C31.7942 0.30518 34.2057 0.30518 35.2999 1.94646L45.654 17.4777C46.6003 18.8974 48.545 19.2303 49.91 18.2068C54.0558 15.0975 58.2013 11.9884 62.3471 8.87909C63.8989 7.71512 66.0805 9.02281 65.7856 10.9401C64.4549 19.5895 63.1243 28.2387 61.7936 36.8881H4.20658Z" fill="#009933"/>
<path d="M31.9369 28.6719V18.4319L33.0569 19.5519H29.6969V17.4719H34.5289V28.6719H31.9369Z" fill="white"/>
<path d="M58.7911 51.2843H7.20893C5.55081 51.2843 4.20659 49.9401 4.20659 48.282V41.6866H61.7936V48.282C61.7934 49.9401 60.4492 51.2843 58.7911 51.2843V51.2843Z" fill="#009933"/>
</svg>
