<svg width="66" height="51" viewBox="0 0 66 51" fill="none" xmlns="http://www.w3.org/2000/svg">
<path d="M4.01904 36.1726C2.68838 27.5232 1.35772 18.874 0.0270666 10.2246C-0.268027 8.30731 1.91357 6.99962 3.46538 8.16359C7.61113 11.2729 11.7567 14.382 15.9024 17.4913C17.2674 18.5151 19.2121 18.1819 20.1584 16.7622L30.5125 1.23096C31.6067 -0.41032 34.0182 -0.41032 35.1124 1.23096L45.4665 16.7622C46.4128 18.1819 48.3575 18.5148 49.7225 17.4913C53.8682 14.382 58.0138 11.2729 62.1595 8.16359C63.7113 6.99962 65.8929 8.30731 65.598 10.2246C64.2674 18.874 62.9367 27.5232 61.6061 36.1726H4.01904Z" fill="#009933"/>
<path d="M32.2044 28.1484C31.4257 28.1484 30.6524 28.0471 29.8844 27.8444C29.127 27.6311 28.4764 27.3324 27.9324 26.9484L28.9564 24.9644C29.383 25.2737 29.8737 25.5191 30.4284 25.7004C30.9937 25.8817 31.5644 25.9724 32.1404 25.9724C32.791 25.9724 33.303 25.8444 33.6764 25.5884C34.0497 25.3324 34.2364 24.9751 34.2364 24.5164C34.2364 24.2284 34.1617 23.9724 34.0124 23.7484C33.863 23.5244 33.5964 23.3537 33.2124 23.2364C32.839 23.1191 32.311 23.0604 31.6284 23.0604H28.7644L29.3404 16.7564H36.1724V18.8364H30.2684L31.6124 17.6524L31.2124 22.1484L29.8684 20.9644H32.2364C33.3457 20.9644 34.2364 21.1191 34.9084 21.4284C35.591 21.7271 36.087 22.1377 36.3964 22.6604C36.7057 23.1831 36.8604 23.7751 36.8604 24.4364C36.8604 25.0977 36.695 25.7111 36.3644 26.2764C36.0337 26.8311 35.5217 27.2844 34.8284 27.6364C34.1457 27.9777 33.271 28.1484 32.2044 28.1484Z" fill="white"/>
<path d="M58.6035 50.5688H7.02139C5.36326 50.5688 4.01904 49.2246 4.01904 47.5665V40.9711H61.6061V47.5665C61.6059 49.2246 60.2617 50.5688 58.6035 50.5688V50.5688Z" fill="#009933"/>
</svg>
