<svg width="66" height="51" viewBox="0 0 66 51" fill="none" xmlns="http://www.w3.org/2000/svg">
<path d="M4.01904 36.1726C2.68838 27.5232 1.35772 18.874 0.0270666 10.2246C-0.268027 8.30731 1.91357 6.99962 3.46538 8.16359C7.61113 11.2729 11.7567 14.382 15.9024 17.4913C17.2674 18.5151 19.2121 18.1819 20.1584 16.7622L30.5125 1.23096C31.6067 -0.41032 34.0182 -0.41032 35.1124 1.23096L45.4665 16.7622C46.4128 18.1819 48.3575 18.5148 49.7225 17.4913C53.8682 14.382 58.0138 11.2729 62.1595 8.16359C63.7113 6.99962 65.8929 8.30731 65.598 10.2246C64.2674 18.874 62.9367 27.5232 61.6061 36.1726H4.01904Z" fill="#009933"/>
<path d="M27.5106 25.6044V23.8604L32.7906 16.7564H35.5106L30.3426 23.8604L29.0786 23.4924H37.8946V25.6044H27.5106ZM33.5426 27.9564V25.6044L33.6226 23.4924V21.3964H36.0706V27.9564H33.5426Z" fill="white"/>
<path d="M58.6035 50.5688H7.02139C5.36326 50.5688 4.01904 49.2246 4.01904 47.5665V40.9711H61.6061V47.5665C61.6059 49.2246 60.2617 50.5688 58.6035 50.5688V50.5688Z" fill="#009933"/>
</svg>
